<svg width="800" height="800" xmlns="http://www.w3.org/2000/svg">
	<path d = "M 318.0 714.0 C 321.8169596810495 715.4906945754004, 325.4764842073498 716.837406930918, 328.9910278338323 718.0329657538364, 332.37237856549797 719.071316302923, 335.63168164252465 719.9474432776119, 338.77946262815345 720.6572976178469, 341.82565008384836 721.1977270737721, 344.779597817956 721.5664103896154, 347.6501066957443 721.7617949511497, 350.44544600026376 721.783037751059, 353.1733743349527 721.6299495313525, 355.8411600603155 721.3029419667087, 358.45560125832316 720.8029777572347, 361.0230452194402 720.131523503632, 363.54940744836006 719.2905052421733, 366.04019018564446 718.2822665211726, 368.500500443505 717.10952890483, 370.9350675549496 715.7753547944117, 373.3482602364315 714.2831124606997, 375.74410316500615 712.6364431855279, 378.12629307180225 710.8392304139832, 380.4982143543597 708.8955708225252, 382.86295421109406 706.8097472118445, 385.22331730178666 704.5862031367535, 387.58183993860405 702.2295191887606, 389.940803812702 699.7443908502764, 392.3022492619826 697.1356078425515, 394.66798808603477 694.4080348925526, 397.03961591472563 691.5665938469622, 399.41852413728907 688.6162470643962, 401.80591139911894 685.5619820197365, 404.2027946737885 682.4087970572073, 406.61001991810275 679.1616882314597, 409.0282723182435 675.8256371784773, 411.45808613529016 672.4055999605858, 413.8998541585933 668.9064968322517, 416.35383677564715 665.33320287564, 418.8201706672432 661.6905394571538, 421.2988771368113 657.9832664583222, 423.78987008294416 654.216075236493, 426.29296362417523 650.3935822727765, 428.8078793851296 646.5203234666496, 431.3342534532042 642.6007490384752, 433.8716430149418 638.6392190030057, 436.41953268126815 634.6399991786632, 438.97734051073434 630.6072576990747, 441.54442373987774 626.5450619949281, 444.12008422976714 622.4573762157834, 446.70357363773184 618.3480590629408, 449.2940983232082 614.2208620059188, 451.89082399654427 610.0794278564487, 454.4928801195159 605.92728967523, 457.09936406619744 601.7678699879477, 459.709345052718 597.6044802882712, 462.3218678443143 593.4403208067258, 464.93595624795836 589.2784805254383, 467.5506163987038 585.1219374198362, 470.1648398477544 580.9735589094032, 472.77760646010483 576.8361025005796, 475.3878871294575 572.7122166058308, 477.9946463179571 568.6044415238122, 480.5968444281254 564.5152105664177, 483.19344001421587 560.4468513193166, 485.78339184003653 556.4015870233687, 488.3656607901227 552.3815380650647, 490.9392116409705 548.3887235648365, 493.503014698864 544.4250630527806, 496.0560473106611 540.4923782219718, 498.59729525372074 536.5923947501741, 501.1257540109866 532.7267441813339, 503.64042993705664 528.8969658588045, 506.1403413209028 525.1045089027842, 508.6245193507211 521.3507342249526, 511.09200898622424 517.6369165737653, 513.5418697435108 513.9642466043355, 515.9731763974768 510.3338329672426, 518.385019606561 506.7467044110383, 520.7765064644494 503.2038118935863, 523.1467609831963 499.70603069775734, 525.4949245120498 496.2541625473344, 527.8201560961179 492.8489377193113, 530.1216327788334 489.4910171490867, 532.3985498520375 486.1809945253328, 534.6501210573301 482.9193983716025, 536.8755787421901 479.7066941119914, 539.0741739742174 476.5432861184194, 541.2451766167042 473.4295197373196, 543.3878753685912 470.36568329374006, 545.5015777717322 467.35201007106406, 547.585610188248 464.38868026474455, 549.639317750619 461.47582290862056, 551.662064287029 458.6135177725548, 553.6532322243525 455.80179723027953, 555.612222471047 453.04064809648514, 557.5384542820939 450.33001343231876, 559.4313651080122 447.66979431858215, 561.2904104298539 445.0598515960394, 563.1150635819824 442.50000757234346, 564.9048155643235 439.99004769519894, 566.6591748456743 437.52972219146284, 568.3776671595617 435.11874767197236, 570.0598352940299 432.7568087019677, 571.7052388766602 430.4435593370447, 573.3134541560192 428.17862462464393, 574.8840737806531 425.96160207113587, 576.4167065766627 423.7920630746203, 577.9109773248003 421.6695543236072, 579.3665265379707 419.5935991617877, 580.7830102399247 417.56369891914915, 582.1600997458743 415.5793342097196, 583.4974814456867 413.6399661962618, 584.7948565902448 411.74503782226634, 586.0519410815045 409.89397501161574, 587.2684652667151 408.08618783631687, 588.444173737216 406.3210716527156, 589.5788251321643 404.5980082066277, 590.672191947498 402.9163667078285, 591.7240603503946 401.27550487436264, 592.7342299994305 399.67476994713854, 593.7025138706099 398.1134996752846, 594.6287380893893 396.59102327274627, 595.5127417687787 395.10666234661073, 596.3543768535761 393.6597317976461, 597.1535079707442 392.2495406935442, 597.910012285917 390.8753931153568, 598.6237793659863 389.53658897761426, 599.2947110476985 388.2324248226097, 599.9227213121554 386.962194589335, 600.507736165101 385.72519035754715, 601.049693522848 384.5207030674384, 601.5485431036707 383.34802321538035, 602.0042463244943 382.2064415262076, 602.4167762026665 381.09524960249627, 602.7861172626057 380.0137405512887, 603.1122654470909 378.96120958871046, 603.3952280329578 377.93695462291385, 603.6350235509456 376.9402768157783, 603.8316817094408 375.97048112379025, 603.9852433218423 375.02687681851484, 604.0957602372847 374.10877798706616, 604.1632952744311 373.21550401297395, 604.187922158061 372.3463800378371, 604.1697254581608 371.50073740414615, 604.1088005312364 370.677914079649, 604.0052534635554 369.8772550636263, 603.859201016034 369.09811277543616, 603.6707705704794 368.33984742567907, 603.4401000769077 367.6018273703272, 603.167338001649 366.88342944815463, 602.8526432759694 366.1840393017989, 602.4961852449272 365.5030516827765, 602.0981436162035 364.8398707407679, 601.658708408634 364.1939102974836, 601.1780799001941 363.5645941054123, 600.6564685751766 362.95135609175213, 600.0940950703276 362.3536405878125, 599.4911901196973 361.7709025441778, 598.8479944979802 361.2026077319087, 598.1647589621246 360.64823293006117, 597.4417441910003 360.10726609979196, 596.6792207229205 359.57920654531716, 595.8774688908276 359.0635650619868, 595.0367787549538 358.5598640717317, 594.1574500327911 358.06763774613773, 593.2397920261959 357.5864321173973, 592.2841235454832 357.1158051773837, 591.2907728303611 356.65532696509297, 590.2600774675715 356.20457964269144, 589.1923843051163 355.76315756040873, 588.0880493629526 355.3306673105073, 586.9474377400558 354.90672777056307, 585.7709235177546 354.4909701362845, 584.5588896592589 354.08303794409846, 583.3117279053054 353.68258708372707, 582.0298386658596 353.28928580097863, 580.7136309078211 352.90281469097306, 579.3635220386884 352.5228666820228, 577.9799377861553 352.14914701038526, 576.5633120736092 351.78137318610436, 575.114086891522 351.41927495015426, 573.6327121647287 351.0625942231012, 572.1196456155966 350.711085045494, 570.5753526231006 350.3645135101945, 569.000306077827 350.02265768685993, 567.3949862329357 349.6853075387825, 565.7598805511211 349.3522648323001, 564.0954835476181 349.0233430389783, 562.4022966293095 348.6983672307763, 560.6808279299955 348.3771739683987, 558.9315921418988 348.0596111830388, 557.1551103434771 347.74553805171684, 555.3519098236322 347.4348248664175, 553.5225239024021 347.1273528972277, 551.6674917482353 346.82301424967557, 549.7873581919464 346.52171171647416, 547.8826735374645 346.22335862386615, 545.9539933694871 345.92787867277093, 544.0018783581559 345.6352057749323, 542.0268940608795 345.34528388426173, 540.0296107214323 345.05806682357786, 538.0106030664575 344.7735181069326, 535.970450099515 344.4916107577229, 533.9097348928107 344.21232712277896, 531.82904437675 343.935658682622, 529.7289691274642 343.6616058580836, 527.610103152457 343.39017781347565, 525.4730436745206 343.12139225650157, 523.3183909140798 342.85527523509404, 521.1467478701139 342.59186093136753, 518.9587200998192 342.33119145287156, 516.7549154971666 342.07331662132407, 514.5359440705159 341.81829375901236, 512.3024177194478 341.5661874730383, 510.05495001097506 341.31706943758803, 507.79415595529207 341.0710181744035, 505.5206517812306 340.82811883163066, 503.2350547115763 340.58846296121885, 500.9379827384141 340.352148295043, 498.6300543986593 340.119278519916, 496.31188854993655 339.88996305166467, 493.9841041469663 339.6643168084283, 491.64732001861546 339.44245998334895, 489.30215464577134 339.22451781681116, 486.94922594019175 339.01062036839284, 484.58915102448634 338.8009022886824, 482.22254601338113 338.5955025911178, 479.850025796413 338.39456442399876, 477.47220382220564 338.1982348428225, 475.08969188446713 338.0066645830889, 472.7030999098563 337.8200078337212, 470.3130357478507 337.6384220112427, 467.9201049627601 337.46206753484813, 465.5249106280136 337.2911076025087, 463.1280531228539 337.1257079682412, 460.7301299315617 336.9660367206743, 458.33173544534134 336.8122640630381, 455.9334607669784 336.6645620947046, 453.535893518395 336.52310459439707, 451.1396176512093 336.38806680519286, 448.74521326041133 336.2596252214296, 446.35325640125944 336.1379573776335, 443.96431890950146 336.0232416395758, 441.5789682250131 335.915656997566, 439.1977672189511 335.8153828620853, 436.82127402450965 335.7225988618621, 434.45004187136476 335.6374846444837, 432.0846189238856 335.56021967964307, 429.7255481231951 335.490983065108, 427.37336703314514 335.42995333550346, 425.02860769028206 335.3773082739897, 422.6917964578589 335.33322472691964, 420.3634538839613 335.2978784215522, 418.04409456379676 335.2714437868981, 415.734227006201 335.25409377777, 413.434353504409 335.2459997021043, 411.14497001112983 335.2473310516224, 408.86656601796744 335.2582553358914, 406.5996244392186 335.2789379198468, 404.34462150007795 335.30954186482865, 402.1020266292784 335.35022777318926, 399.87230235618307 335.4011536365177, 397.65590421235186 335.46247468753086, 395.45328063759075 335.5343432556731, 393.26487289049544 335.6169086264654, 391.09111496349595 335.7103169046418, 388.93243350239743 335.81471088110726, 386.7892477304222 335.93022990374817, 384.6619693767395 336.0570097521245, 382.5510026094779 336.19518251606854, 380.45674397320204 336.3448764782148, 378.3795823308398 336.50621600047685, 376.3198988100352 336.679321414493, 374.27806675390593 336.86430891605136, 372.25445167617335 337.061290463507, 370.24941122063774 337.27037368020086, 368.26329512496136 337.491661760884, 366.2964451887212 337.7252533821545, 364.34919524569403 337.97124261690294, 362.4218711403258 338.2297188527688, 360.5147907083406 338.50076671460266, 358.6282637614408 338.78446599092604, 356.7625920760434 339.0808915643813, 354.9180693860002 339.39011334616055, 353.0949813792431 339.7121962143977, 351.2936056982966 340.0471999565114, 349.5142119445915 340.3951792154769, 347.7570616865214 340.756183440009, 346.02240847116974 341.13025683863344, 344.31049783964363 341.5174383376209, 342.62156734594066 341.9177615427593, 340.9558465792793 342.3312547049349, 339.31355718981774 342.75794068949176, 337.69491291768463 343.19783694933795, 336.1001196252476 343.65095550176534, 334.5293753325384 344.11730290894633, 332.9828702557558 344.59688026207016, 331.4607868487675 345.08968316908204, 329.963299847524 345.5957017459823, 328.4905763173069 346.11492061164444, 327.0427757027237 346.6473188861106, 325.62004988036676 347.1928701923162, 324.22254321404813 347.7515426612008, 322.85039261252695 348.3232989401571, 321.5037275896413 348.90809620476796, 320.18267032675624 349.50588617378367, 318.88733573744275 350.1166151272877, 317.61783153429786 350.74022392799924, 316.3742582978184 351.37664804565907, 315.156709547241 352.0258175844455, 313.96527181325933 352.68765731336504, 312.80002471253067 353.3620866995623, 311.6610410238843 354.0490199444936, 310.5483867661434 354.74836602290395, 309.46212127747395 355.46002872455404, 308.40229729617255 356.1839066986337, 307.36896104280817 356.91989350080655, 306.36215230363024 357.6678776428241, 305.3819045151589 358.4277426446486, 304.42824484987244 359.19936708902515, 303.5011943029076 359.9826246784404, 302.6007677796909 360.77738429440853, 301.7269741844171 361.5835100590189, 300.87981650929515 362.4008613986874, 300.0592919244801 363.22929311004447, 299.26539186861316 364.0686554279019, 298.4981021398904 364.91879409523176, 297.7574029875847 365.77955043509564, 297.04326920394396 366.65076142446213, 296.355670216392 367.5322597698485, 295.6945701799598 368.42387398472323, 295.05992806987325 369.3254284686066, 294.45169777422996 370.23674358780727, 293.86982818669327 371.1576357577305, 293.31426329913967 372.0879175266956, 292.78494229419044 373.02739766120095, 292.28179963756577 373.97588123257356, 291.8047651701977 374.93316970494027, 291.3537642000406 375.8990610244601, 290.92871759352073 376.87334970975576, 290.52954186656734 377.85582694348284, 290.1561492751675 378.84628066497476, 289.80844790539305 379.84449566390686, 289.4863417628456 380.8502536749139, 289.18973086146866 381.8633334731062, 288.9185113116797 382.88351097042323, 288.67257540777285 383.91055931276566, 288.45181171454806 384.94424897784904, 288.2561051531238 385.98434787372025, 288.08533708589 387.030621437881, 287.93938540056257 388.08283273696037, 287.8181245933012 389.1407425668828, 287.72142585085436 390.2041095534727, 287.64915713169626 391.2726902534472, 287.60118324612415 392.3462392557354, 287.5773659352859 393.4245092830778, 287.5775639491065 394.5072512938491, 287.60163312308913 395.59421458405455, 287.6494264539641 396.6851468894492, 287.7207941741623 397.7797944877268, 287.81558382509166 398.8779023007327, 287.9336403291971 399.9792139966494, 288.0748060607847 401.08347209210757, 288.23892091559554 402.19041805417487, 288.4258223791121 403.2997924021774, 288.635345593587 404.41133480930614, 288.8673234237798 405.524784203966, 289.1215865213954 406.6398788708215, 289.39796338821327 407.7563565514965, 289.69628043790345 408.87395454488757, 290.0163620565226 409.9924098070457, 290.35803066168836 411.11145905059107, 290.72110676042985 412.23083884361495, 291.1054090057139 413.35028570803667, 291.51075425164913 414.46953621737117, 291.93695760737006 415.5883270938752, 292.3838324896057 416.7063953050339, 292.85119067393805 417.8234781593512, 293.3388423447583 418.93931340141216, 293.84659614392797 420.05363930618245, 294.3742592181557 421.16619477251146, 294.9216372650993 422.2767194158094, 295.4885345782069 423.38495365986563, 296.07475409030866 424.49063882777847, 296.6800974159751 425.5935172319689, 297.3043648926568 426.6933322632486, 297.9473556206218 427.7898284789139, 298.6088675017096 428.8827516898426, 299.2886972769195 429.97184904656444, 299.98664056285315 431.05686912428274, 300.70249188703264 432.1375620068219, 301.4360447221141 433.2136793694801, 302.18709151902107 434.2849745607613, 302.9554237390196 435.3512026829696, 303.7408318847589 436.4121206716426, 304.54310553030376 437.4674873738039, 305.362033350182 438.5170636250192, 306.19740314747435 439.56061232523444, 307.0490018809739 440.5978985133814, 307.91661569144037 441.6286894407329, 308.8000299269794 442.65275464299333, 309.6990291675732 443.6698660111099, 310.6133972487928 444.6797978607887, 311.5429172847198 445.68232700070575, 312.48737169010815 446.6772327993986, 313.44654220181576 447.66429725082764, 314.42020989953505 448.64330503859577, 315.40815522585524 449.61404359881794, 316.4101580056842 450.5763031816301, 317.425997465064 451.52987691132904, 318.4554522494072 452.4745608451365, 319.49830044119074 453.4101540305798, 320.5543195771323 454.3364585614817, 321.6232866648859 455.2532796325567, 322.70497819928477 456.1604255926055, 323.79917017816496 457.05770799630625, 324.90563811779907 457.944941654597, 326.02415706797353 458.82194468364764, 327.15450162673864 459.68853855241923, 328.29644595486366 460.5445481288076, 329.449763790027 461.3898017243728, 330.61422846077295 462.2241311376512, 331.78961290026416 463.0473716960526, 332.9756896598617 463.8593622963436, 334.17223092256 464.65994544371506, 335.37900851630945 465.4489672894416, 336.59579392725294 466.22627766712924, 337.8223583129063 466.99173012756074, 339.05847251531156 467.74518197213604, 340.30390707418985 468.4864942849178, 341.55843224012233 469.2155319632826, 342.82181798778555 469.9321637471857, 344.09383402926846 470.63626224704296, 345.37424982749616 471.327703970238, 346.6628346097869 472.00636934626107, 347.95935738156624 472.672142750485, 349.26358694026385 473.324912526589, 350.5752918894146 473.9645710076347, 351.89424065299 474.59101453580604, 353.22020148998024 475.2041434808218, 354.5529425092483 475.80386225702614, 355.89223168468016 476.390079339172, 357.2378368706474 476.962707276905, 358.589525817806 477.5216627079575, 359.94706618924715 478.06686637006567, 361.3102255770203 478.59824311161896, 362.6787715190458 479.1157219010548, 364.0524715164324 479.6192358350091, 365.4310930512181 480.1087221452354, 366.8144036045469 480.58412220430574, 368.202170675299 481.0453815301037, 369.59416179918526 481.49244978912515, 370.99014456832043 481.92528079859864, 372.3898866512869 482.34383252743794, 373.7931558137004 482.74806709604326, 375.19971993928783 483.13795077496184, 376.609347051487 483.51345398242415, 378.021805335577 483.87455128076914, 379.43686316134836 484.22122137177314, 380.8542891063168 484.5534470908978, 382.27385197949235 484.87121540047065, 383.6953208457037 485.1745173818146, 385.1184650504866 485.46334822633963, 386.54305424553803 485.73770722561494, 387.96885841474 485.9975977604333, 389.3956479007543 486.24302728888625, 390.8231934321913 486.47400733346376, 392.2512661513515 486.6905534671941, 393.67963764254074 486.8926852988414, 395.1080799609568 487.0804264571735, 396.5363656621481 487.25380457431976, 397.96426783203776 487.4128512682308, 399.3915601175136 487.5576021242592, 400.81801675757737 487.6880966758745, 402.24341261504816 487.80437838453037, 403.66752320881653 487.9064946186986, 405.09012474663905 487.99449663208594, 406.5109941584698 488.06843954104994, 407.9299091303173 488.1283823012282, 409.3466481386206 488.1743876833998, 410.7609904851336 488.20652224859, 412.17271633230837 488.22485632243786, 413.58160673916484 488.2294639688398, 414.98744369763705 488.22042296288515, 416.39001016938244 488.1978147630984, 417.78909012304223 488.1617244830049, 419.18446857193766 488.1122408620323, 420.5759316121896 488.0494562357645, 421.9632664612453 487.9734665055629, 423.3462614967975 487.88437110756684, 424.7247062960797 487.78227298109124, 426.0983916755203 487.6672785364334, 427.4671097307393 487.5394976221017, 428.8306538768696 487.3990434914838, 430.1888188891834 487.24603276896255, 431.5414009440067 487.08058541549906, 432.8881976599018 486.9028246936899, 434.2290081390971 486.7128771323157, 435.5636330091451 486.51087249039125, 436.8918744647882 486.2969437207308, 438.21353631000966 486.0712269330397, 439.5284240002501 485.8338613565445, 440.8363446847652 485.58498930217297, 442.137107249106 485.3247561242955, 443.4305223576937 485.0533101820382, 444.71640249647334 484.77080280017947, 445.99456201561514 484.4773882296379, 447.2648171722465 484.173223607565, 448.52698617318674 483.8584689170491, 449.7808892176628 483.5332869464426, 451.0263485399798 483.1978432483187, 452.2631884521238 482.8523060980694, 453.49123538627066 482.49684645214944, 454.71031793717634 482.13163790597906, 455.92026690442395 481.7568566515076, 457.1209153345033 481.37268143444936, 458.3120985626949 480.97929351119797, 459.4936542547356 480.5768766054239, 460.66542244823995 480.16561686436296, 461.8272455938512 479.74570281480214, 462.9789685960968 479.31732531876645, 464.1204388539216 478.88067752891277, 465.251506300876 478.43595484363686, 466.37202344493136 477.9833548618949, 467.4818454078973 477.5230773377461, 468.5808299644161 477.0553241346194, 469.6688375805098 476.5802991793061, 470.74573145165215 476.09820841568416, 471.81137754034336 475.6092597581729, 472.86564461316163 475.11366304492446, 473.908404277265 474.61162999075015, 474.9395310163218 474.10337413978544, 475.95890222584404 473.58911081789336, 476.9663982478988 473.0690570848083, 477.96190240517495 472.5434316860188, 478.9453010343823 472.0124550043911, 479.91648351895674 471.4763490115327, 480.875342321052 470.9353372188939, 481.821773012793 470.3896446286082, 482.75567430676875 469.8394976840697, 483.6769480857438 469.2851242202449, 484.5854994315653 468.72675341371803, 485.4812366532447 468.1646157324681, 486.36407131419423 467.5989428853733, 487.23391825859596 467.02996777144176, 488.090695636884 466.4579244287653, 488.93432493032185 465.88304798319143, 489.7647309746536 465.3055745967125, 490.5818419828097 464.72574141556606, 491.3855895666534 464.14378651804265, 492.17590875774493 463.5599488619981, 492.95273802710904 462.9744682320653, 493.7160193039905 462.38758518655953, 494.46569799357695 461.7995410040744, 495.20172299367863 461.21057762976227, 495.9240467103476 460.62093762129496, 496.6326250724216 460.03086409449776, 497.32741754497897 459.44060066865416, 498.0083871416937 458.8503914114733, 498.6755004360747 458.26048078371593, 499.3287275715793 457.67111358347273, 499.9680422705892 457.0825348900903, 500.5934218422384 456.4949900077375, 501.2048471890825 455.90872440860926, 501.8023028126003 455.32398367575814, 502.38577681751946 454.74101344555254, 502.95526091495674 454.1600593497526, 503.510750424368 453.58136695720043, 504.0522442742974 453.00518171511766, 504.5797450019233 452.43174889000665, 505.0932587513945 451.86131350814884, 505.59279527095146 451.2941202956968, 506.0783679088284 450.73041361835294, 506.5499936079348 450.17043742063373, 507.0076928993108 449.6144351647111, 507.4514898943593 449.06264976883034, 507.88141227584725 448.51532354529877, 508.29749128768236 447.97269813804206, 508.6997617234608 447.43501445972595, 509.08826191378853 446.90251262843907, 509.4630337123784 446.3754319039354, 509.82412248092436 445.854010623434, 510.17157707275766 445.3384861369751, 510.5054498152863 444.8290947423295, 510.82579649122374 444.32607161946294, 511.13267631861333 443.82965076455343, 511.42615192965144 443.3400649235627, 511.70628934831757 442.85754552536275, 511.97315796681903 442.3823226144181, 512.2268305208581 441.91462478302645, 512.467383063727 441.45467910312044, 512.6948949392466 441.0027110576338, 512.9094487535515 440.55894447143476, 513.1111303457366 440.12360144183333, 513.3000287573745 439.6969022686658, 513.4762362009182 439.2790653839651, 513.639848026994 438.87030728122, 513.7909626906098 438.47084244423564, 513.9296817162798 438.0808832755995, 514.0561096620888 437.7006400247658, 514.1703540827048 437.33032071576457, 514.2725254913607 436.9701310745511, 514.3627373208158 436.6202744560033, 514.4411058833161 436.28095177058316, 514.5077503295707 435.95236141067335, 514.56279260676 435.63469917660694, 514.6063574155937 435.3281582024021, 514.6385721664387 435.03292888122286, 514.6595669345337 434.74919879057944, 514.6694744143093 434.4771526172898, 514.6684298728371 434.21697208222224, 514.6565711024208 433.96883586483693, 514.6340383723572 433.7329195275527, 514.6009743798818 433.50939543995827, 514.5575242003242 433.29843270289496, 514.5038352364921 433.1001970724334, 514.4400571673057 432.91485088377425, 514.366341895707 432.74255297509586, 514.2828434958626 432.58345861138207, 514.1897181596846 432.43771940825656, 514.0871241426925 432.3054832558565, 513.9752217092363 432.18689424277716, 513.8541730771082 432.0820925801204, 513.724142361562 431.9912145256822, 513.5852955187654 431.9143923083139, 513.4378002887084 431.851754052495, 513.2818261375903 431.8034237031544, 513.1175441997118 431.7695209507801, 512.9451272188912 431.75016115685645, 512.7647494894333 431.7454552796721, 512.57658679667 431.75550980053913, 512.3808163570992 431.78042665046866, 512.1776167581461 431.82030313734697, 511.96716789756596 431.8752318736582, 511.7496509225175 431.94530070480084, 511.52524816832613 432.0305926380457, 511.2941430969612 432.1311857721846, 511.0565202352512 432.2471532279212, 510.8125651128585 432.3785630790529, 510.5624642000367 432.52547828449815, 510.30640484519245 432.6879566212214, 510.04457521227573 432.8660506181108, 509.7771642180169 433.0598074908626, 509.5043614690356 433.2692690779286, 509.22635719884073 433.4944717775853, 508.94334220474394 433.7354464861802, 508.6555077847033 433.9922185376148, 508.36304567412384 434.2648076441245, 508.0661479826297 434.5532278384147, 507.7650071308271 434.85748741721403, 507.459815787081 435.17758888630556, 507.15076680432094 435.51352890710126, 506.83805315689426 435.86529824481784, 506.5218678774848 436.2328817183203, 506.2024039941157 436.6162581516979, 505.8798544672492 437.0154003276323, 505.5544121270038 437.43027494262793, 505.22626961050054 437.860842564166, 504.89561929935576 438.3070575898483, 504.5626532573344 438.7688682085968, 504.2275631681759 439.2462163639748, 503.89054027360885 439.7390377196939, 503.5517753115652 440.24726162737517, 503.2114584546051 440.77081109662873, 502.8697792485673 441.30960276751665, 502.5269265514516 441.863546885468, 502.18308847254764 442.4325472787093, 501.8384523118165 443.0165013382744, 501.4932044995357 443.6153000006628, 501.14753053621484 444.22882773320663, 500.801614932792 444.8569625222139, 500.45564115111335 445.4995758639484, 500.1097915447084 446.1565327585119, 499.76424729985985 446.8276917066902, 499.4191883769801 447.5129047098222, 499.0747934522929 448.2120172727573, 498.73123985982835 448.9248684099565, 498.3887035337319 449.6512906547986, 498.0473589508908 450.39111007214814, 497.7073790738809 451.14414627424253, 497.3689352942332 451.91021243995283, 497.0321973760235 452.689115337473, 496.6973333997832 453.48065535049005, 496.36450970673184 454.28462650788623, 496.0338908433313 455.1008165170238, 495.7056395061586 455.9290068006589, 495.3799164870977 456.7689725375322, 495.05688061884473 457.62048270668134, 494.73668872072756 458.4833001355161, 494.419495544833 459.35718155169843, 494.10545372243985 460.2418776388665, 493.794713710754 461.1371330962375, 493.48742373993855 462.0426867021263, 493.1837297604368 462.9582713814092, 492.8837753905814 463.8836142769655, 492.58770186448453 464.8184368251224, 492.2956479802031 465.7624548351275, 492.007750048173 466.7153785726746, 491.72414183990605 467.67691284749736, 491.444954536943 468.6467571050529, 491.1703166800571 469.6246055223044, 490.90035411869917 470.61014710761896, 490.63518996068035 471.60306580478374, 490.37494452208267 472.60304060114976, 490.1197352773934 473.6097456399027, 489.86967680985316 474.6228503364612, 489.6248807620156 475.6420194989968, 489.3854557865071 476.66691345306833, 489.15150749698284 477.69718817036187, 488.9231384192731 478.7324954015175, 488.70044794271274 479.7724828130278, 488.48353227164836 480.8167941281862, 488.2724843771185 481.8650692720603, 488.06739394870095 482.916944520459, 487.86834734652365 483.9720526528643, 487.6754275534335 485.0300231092892, 487.48871412732234 486.0904821510217, 487.3082831536034 487.1530530252135, 487.13420719783926 488.2173561332611, 486.9665552585179 489.28300920293276, 486.80539271997606 490.34962746418245, 486.6507813054706 491.41682382859, 486.50277903039677 492.4842090723694, 486.36144015565714 493.55139202287137, 486.2268151411821 494.6179797485119, 486.09895059960536 495.6835777520517, 485.9778892500998 496.7477901671439, 485.8636698723792 497.81021995806884, 485.7563272608704 498.870469122567, 485.65589217906717 499.92813889767814, 485.5623913140716 500.9828299684909, 485.4758472313349 502.03414267970226, 485.39627832960997 503.0816772498829, 485.3236987961259 504.12503398834184, 485.2581185620027 505.1638135144747, 485.1995432579184 506.1976169794831, 485.1479741700483 507.22604629034254, 485.10340819629437 508.24870433589723, 485.0658378028253 509.2651952149496, 485.0352509809494 510.2751244662188, 485.01163120434455 511.27809930002667, 484.9949573866696 512.273728831576, 484.98520383958555 513.2616243156766, 484.9823402312161 514.2413993827712, 484.9863315450752 515.2126702761147, 484.9971380394994 516.175056089948, 485.01471520761527 517.128179008515, 485.0390137378797 518.0716645457562, 485.0699794752331 519.0051417855225, 485.1075533829039 519.9282436221337, 485.1516715049076 520.8406070011197, 485.20226492928526 521.7418731599681, 485.2592597521271 522.6316878686995, 485.3225770424298 523.5097016700988, 485.39213280784026 524.3755701194153, 485.467837961334 525.2289540233503, 485.5495982888885 526.0695196781472, 485.6373144182041 526.8969391065928, 485.73088178853305 527.710890293742, 485.8301906216793 528.5110574211714, 485.9351258942294 529.2971310995688, 486.0455673110815 530.0688085994616, 486.16138928034127 530.8257940798853, 486.28246088965045 531.5677988147959, 486.4086458840241 532.2945414170217, 486.5398026452672 533.0057480595567, 486.6757841730473 533.7011526939891, 486.8164380677017 534.3804972658653, 486.9616065148575 535.0435319267822, 487.11112627194797 535.6900152430051, 487.2648286567073 536.3197144004064, 487.42253953773087 536.9324054055182, 487.5840793271875 537.5278732824964, 487.7492629757729 538.1059122657913, 487.91789996999773 538.6663259883177, 488.0897943318979 539.2089276649259, 488.2647446212691 539.7335402709675, 488.4425439405143 540.2399967157542, 488.62297994220825 540.7281400107119, 488.8058348394725 541.1978234320293, 488.99088541926693 541.6489106776025, 489.17790305869664 542.0812760180836, 489.3666537444379 542.4948044418368, 489.55689809538995 542.8893917936124, 489.7483913886556 543.2649449067487, 489.94088358895885 543.6213817287177, 490.1341193816087 543.9586314398291, 490.32783820911476 544.276634564915, 490.52177431156855 544.5753430778148, 490.7156567708949 544.8547204984917, 490.90920955909155 545.1147419826082, 491.1021515905624 545.3553944033932, 491.2941967786587 545.5766764256442, 491.48505409654086 545.7785985717028, 491.67442764247266 545.9611832792525, 491.86201670965903 546.1244649507909, 492.04751586074246 546.2684899946316, 492.2306150070685 546.3933168573022, 492.4109994928323 546.4990160471987, 492.58835018421905 546.5856701493757, 492.7623435636487 546.6533738313474, 492.93265182923545 546.7022338397845, 493.0989429995723 546.7323689879992, 493.2608810239502 546.7439101341128, 493.4181258981168 546.7370001498081, 493.5703337856859 546.7117938795833, 493.7171571453004 546.6684580904141, 493.85824486365306 546.6071714117547, 493.99324239446855 546.5281242658073, 494.1217919035478 546.4315187879939, 494.24353241997403 546.317568737581, 494.358099993575 546.186499398407, 494.465127858743 546.0385474696727, 494.5642466046977 545.8739609467641, 494.6550843522902 545.6929989920833, 494.73726693743004 545.495931795871, 494.81041810122656 545.2830404270147, 494.8741596869249 545.0546166738407, 494.92811184371544 544.8109628748988, 494.9718932374984 544.5523917397597, 495.00512126867255 544.2792261598477, 495.0274122970254 543.9917990093427, 495.0383818737857 543.6904529361973, 495.0376449809084 543.3755401433143, 495.02481627765 543.0474221599515, 494.9995103544926 542.7064696034167, 494.96134199446857 542.3530619311313, 494.909926441939 541.9875871831497, 494.8448796788673 541.6104417152261, 494.7658187086335 541.2220299225341, 494.6723618474244 540.8227639541483, 494.56412902323433 540.4130634184063, 494.4407420825056 539.9933550792854, 494.3018251044333 539.5640725439215, 494.14700472295436 539.1256559414203, 493.9759104564386 538.6785515931128, 493.788175045093 538.2232116744151, 493.5834347960832 537.7600938684566, 493.36132993638086 537.2896610116594, 493.12150497332675 536.8123807314477, 492.86360906291276 536.3287250762752, 492.58729638576125 535.8391701381735, 492.2922265307925 535.3441956680211, 491.97806488655976 534.8442846837437, 491.6444830402203 534.3399230716623, 491.2911591841213 533.831599181213, 490.9177785299597 533.3198034132637, 490.5240337304811 532.8050278022594, 490.1096253086711 532.2877655924387, 489.674262094395 531.7685108083564, 489.21766166843037 531.2477578199613, 488.73955081383974 530.7260009024792, 488.2396659746187 530.2037337913482, 487.71775372156014 529.6814492324652, 487.17357122526175 529.1596385279951, 486.6068867362076 528.6387910780037, 486.01748007184597 528.1193939181688, 485.4051431105867 527.6019312538269, 484.76968029263367 527.0868839906144, 484.11090912756634 526.5747292619559, 483.4286607085842 526.0659399536539, 482.72278023332075 525.5609842258274, 481.99312753113384 525.0603250324493, 481.2395775967776 524.5644196387152, 480.4620211303558 524.073719136488, 479.6603650834587 523.5886679580393, 478.83453321138313 523.1097033883096, 477.98446663132955 522.6372550758986, 477.1101243864796 522.1717445429847, 476.2114840158439 521.7135846943671, 475.28854212978274 521.2631793257998, 474.3413149910914 520.820922631787, 473.3698391015506 520.3871987129833, 472.3741717938402 519.9623810833275, 471.3543918287164 519.5468321770255, 470.31059999735226 519.1409028554699, 469.2429197287494 518.7449319141659, 468.15149770212724 518.3592455897116, 467.03650446419834 517.9841570668498, 465.89813505124965 517.6199659855853, 464.7366096159442 517.2669579483287, 463.55217405877227 516.9254040270026, 462.34510066407904 516.5955602699956, 461.1156887406089 516.2776672088404, 459.86426526650865 515.9719493644207, 458.5911855387417 515.6786147524964, 457.29683382687557 515.3978543882797, 455.9816240312108 515.1298417897457, 454.64600034523176 514.8747324793189, 453.29043792237286 514.6326634835153, 451.91544354709913 514.4037528300671, 450.52155631032093 514.1880990419954, 449.1093482891717 513.985780628032, 447.67942523119035 513.7968555687213, 446.2324272429748 513.621360797466, 444.76902948337704 513.4593116756952, 443.2899428613418 513.3107014612657, 441.7959147385007 513.1755007691033, 440.2877296366569 513.0536570230208, 438.7662099503216 512.9450938975356, 437.2322166644804 512.8497107484189, 435.68665007779794 512.767382030603, 434.1304505314941 512.6979567019456, 432.5645991441497 512.641257611255, 430.9901185527388 512.5970808688274, 429.4080736602041 512.5651951976407, 427.8195723899378 512.5453412631848, 426.2257664475563 512.5372309797859, 424.62785209040345 512.5405467911028, 423.0270709052488 512.5549409223289, 421.4247105946981 512.5800346014521, 419.8221057728739 512.6154172467429, 418.2206387709708 512.6606456174551, 416.62174045334854 512.7152429245178, 415.0268910448663 512.7786978977904, 413.4376209702344 512.850463806225, 411.85551170620687 512.9299574270514, 410.282196647512 513.0165579598519, 408.7193619874771 513.1096058811344, 407.1687476143825 513.2084017347393, 405.63214802465524 513.3122048531368, 404.11141325408636 513.420232004361, 402.60844982835204 513.5316559590204, 401.1252217341998 513.6456039714907, 399.6637514127624 513.7611561690464, 398.226120776563 513.8773438423262, 396.81447225188003 513.9931476301424, 395.4310098482582 514.1074955912406, 394.07800025707 514.2192611551994, 392.7577739811633 514.3272609442107, 391.47272649776363 514.4302524570234, 390.22531945694476 514.5269316058396, 389.01808191813757 514.6159300964476, 387.85361162730226 514.6958126413361, 386.7345763375689 514.7650739949769, 385.66371517632473 514.8221357998699, 384.64384006193035 514.8653432313292, 383.6778371734379 514.8929614283486, 382.7686684769197 514.9031716971973, 381.91937331222414 514.8940674736947, 381.13307004424183 514.8636500293684, 380.41295778300673 514.8098239059227, 379.7623181772402 514.7303920616268, 379.18451728623637 514.6230507123813, 378.6830075352911 514.4853838493323, 378.2613297602086 514.3148574139622, 377.9231153467667 514.1088131106121, 377.67208847138176 513.8644618353692, 377.5120684496155 513.578876699177, 377.4469721995668 513.2489856219187, 377.48081682763876 512.8715634730387, 377.6177223446269 512.443223733056, 377.8619145205721 511.96040964904114, 378.2177278873361 511.41938485578515, 378.68960889841264 510.81622343300114, 379.282119256068 510.14679936743346, 379.9999394165249 509.4067753872258, 380.84787228455644 508.5915911343011, 381.8308471095484 507.6964506388544, 382.9539235958243 506.71630905830574, 384.2222962408011 505.6458586412572, 385.64129891536567 504.4795138750998, 387.2164097017266 503.2113957739354, 388.953256004925 501.83531526142247, 390.85761995514486 500.34475560098986, 392.9354441190057 498.7328538236288, 395.1928375390969 496.9923811011167, 397.63608212216184 495.1157220100921, 400.2716393975636 493.0948526298423, 403.1061576689285 490.9213174140137, 406.14647958324144 488.586204773675, 409.399650143071 486.08012130628794, 412.8729251891431 483.39316460211177, 416.57378038204575 480.51489455644577, 420.5099207135646 477.43430311283583, 424.6892905798974 474.13978235897184, 429.1200844508878 470.61909089344886, 433.8107581713966 466.8593183778778, 438.7700409330074 462.84684818498147, 444.0069479564726 458.5673180493088, 449.53079392762174 454.0055786230293, 455.3512072319037 449.14564983493676, 461.47814503530356 443.97067494626856, 467.92190926210736 438.46287219225854, 474.69316352282533 432.60348389344585, 481.80295104862523 426.3727229156859, 489.26271369177255 419.749716352518, 497.08431205493775 412.71244629805176, 505.28004681573293 405.23768757280976, 513.862681316543 397.3009422590364, 522.8454654936102 388.87637089579226, 532.2421612234319 379.9367201777445, 542.0670691688167 370.45324699489055, 552.3350572114977 360.39563864352345, 563.0615905629393 349.73192903155433, 574.2627636499939 338.428410693821, 585.9553338772987 326.4495424252574, 598.1567573738446 313.75785233173696, 610.885226836939 300.31383609002245, 624.1597115928728 286.07585019958157, 638.0 271.0, " stroke="black" fill="transparent"/>
</svg>