<svg width="800" height="800" xmlns="http://www.w3.org/2000/svg">
	<path d = "M 194.0 448.0 C 196.89324829582424 442.42002795704406, 199.7260017182588 436.9329265095695, 202.4997362293921 431.53695055682203, 205.2158797555844 426.23039788831244, 207.8758135207575 421.01160802994065, 210.48087335282352 415.8789611235347, 213.03235096361487 410.83087683885196, 215.53149520267192 405.8658133171059, 217.9795132852467 400.9822661451091, 220.377571994876 396.17876735914484, 222.7267988608755 391.4538844777035, 225.02828331110624 386.80621956223996, 227.28307780035945 382.2344083051327, 229.4921989147078 377.73711914404527, 231.6566284521632 373.3130524019105, 233.77731447998403 368.960939451779, 235.85517236897044 364.67954190579655, 237.89108580508335 360.46765082758725, 239.88590777872056 356.32408596734615, 241.84046155198257 352.24769501895787, 243.755541604256 348.2373528984805, 245.6319145564417 344.2919610433484, 247.47032007415166 340.4104467316664, 249.27147175019536 336.59176242098454, 251.03605796667566 332.83488510596226, 252.7647427370101 329.1388156943401, 254.45816652819113 325.5025784006613, 256.1169470635971 321.9252201571955, 257.7416801066622 318.40581004153347, 259.3329402257123 314.943438720339, 260.8912815402684 311.5372179087544, 262.41723844912025 308.186279844974, 263.9113263404666 304.88977677951215, 265.3740422844197 301.64688047870567, 266.80586570816365 298.45678174200543, 268.20725905405953 295.318689932622, 269.57866842098326 292.2318325211065, 270.9205241891806 289.195454641457, 272.23324162892175 286.20881865935354, 273.5172214932355 283.2712037521388, 274.7728505949968 280.3819055001695, 276.0005023686438 277.5402354891786, 277.20053741679544 274.7455209232931, 278.3733040420354 271.9971042483729, 279.5191387641299 269.29434278533546, 280.6383668229419 266.6366083731485, 281.73130266730146 264.0232870211815, 282.79825043008753 261.45377857061357, 283.83950438977917 258.9274963646077, 284.85534941872527 256.44386692696975, 285.8460614183815 254.00232964901915, 286.81190774176247 251.6023364844053, 287.75314760335164 249.24335165161716, 288.67003247670834 246.92485134393462, 289.5628064800119 244.6463234465855, 290.4317067497762 242.40726726087414, 291.2769638029692 240.207193235058, 292.0988018877639 238.04562270175626, 292.89743932315105 235.92208762168005, 293.6730888276358 233.8361303334826, 294.4259578372403 231.78730330953275, 295.15624881303074 229.77516891742223, 295.8641595383859 227.79929918702808, 296.5498834062188 225.85927558294728, 297.21360969636436 223.95468878213978, 297.85552384333914 222.08513845661133, 298.47580769467965 220.25023306097995, 299.0746397600612 218.4495896247725, 299.6521954513983 216.68283354930296, 300.20864731412246 214.94959840899182, 300.7441652498339 213.24952575698876, 301.25891673051814 211.58226493496574, 301.7530670045175 209.94747288695498, 302.22677929444325 208.34481397710806, 302.6802149872157 206.77395981125832, 303.113533816411 205.23458906217306, 303.526894037094 203.7263872983865, 303.9204525933177 202.24904681650796, 304.2943652784572 200.80226647690412, 304.6487868885564 199.38575154265823, 304.9838713688511 197.999213521713, 305.299771953639 196.64237001210674, 305.59664129965773 195.31494455021658, 305.874631613136 194.0166664619268, 306.13389477067415 192.74727071664088, 306.374582434112 191.50649778406282, 306.5968461595399 190.29409349367288, 306.80083750060265 189.10980889682818, 306.9867081062471 187.9534001314209, 307.1546098130611 186.82462828902845, 307.30469473234933 185.72325928449513, 307.43711533208534 184.64906372788437, 307.5520245138854 183.6018167987456, 307.6495756851375 182.58129812264158, 307.7299228264234 181.58729164988287, 307.7932205543684 180.61958553642077, 307.83962418004705 179.67797202685045, 307.8692897630763 178.76224733947893, 307.8823741615226 177.8722115534136, 307.8790350777458 177.00766849763048, 307.8594311003066 176.16842564198188, 307.8237217420517 175.3542939901054, 307.7720674745004 174.56508797419784, 307.704629758647 173.80062535161974, 307.62157107229086 173.0607271032966, 307.5230549340099 172.34521733388598, 307.4092459238843 171.6539231736795, 307.2803097010798 170.98667468221163, 307.1364130183958 170.34330475354741, 306.97772373388403 169.7236490232225, 306.80441081963545 169.12754577681122, 306.6166443678405 168.55483586009854, 306.41459559421673 168.00536259083256, 306.19843683890184 167.47897167203706, 305.96834156490627 166.97551110686183, 305.72448435421603 166.4948311149524, 305.4670409016389 166.03678405031954, 305.19618800648 165.60122432069053, 304.91210356213577 165.18800830832538, 304.61496654368864 164.7969942922812, 304.30495699358937 164.4280423721094, 303.9822560055052 164.0810143929702, 303.6470457064142 163.75577387215063, 303.29950923702563 163.45218592697188, 302.93983073060167 163.17011720407328, 302.56819529025285 162.9094358100596, 302.18478896478473 162.6700112435001, 301.78979872316285 162.45171432826803, 301.38341242766825 162.25441714820803, 300.96581880581124 162.07799298312236, 300.5372074210688 161.92231624606416, 300.0977686425121 161.78726242192877, 299.6476936133873 161.6727080073323, 299.1871742187096 161.57853045176924, 298.71640305193523 161.50460810003915, 298.2355733807651 161.4508201359336, 297.74487911214203 161.41704652717524, 297.24451475649494 161.40316797159977, 296.7346753912855 161.40906584457355, 296.21555662391154 161.43462214763775, 295.68735455401594 161.47971945837168, 295.15026573525586 161.5442408814674, 294.6044871365776 161.62807000100773, 294.05021610304703 161.73109083394016, 293.48765031628153 161.85318778473928, 292.9169877545285 161.9942456012496, 292.3384266524346 162.15414933170234, 291.75216546054855 162.33278428289762, 291.15840280459884 162.53003597954566, 290.55733744458644 162.74579012475888, 289.9491682337315 162.97993256168778, 289.3340940773126 163.23234923629326, 288.7123138914353 163.50292616124767, 288.08402656176366 163.79154938095724, 287.4494309022526 164.0981049376984, 286.808725613911 164.42247883885983, 286.1621092436305 164.76455702528358, 285.5097801431098 165.12422534069646, 284.851936427905 165.50136950222435, 284.1887759366356 165.89587507198158, 283.52049619037274 166.3076274297266, 282.8472943522397 166.73651174657715, 282.1693671872473 167.18241295977506, 281.48691102239275 167.64521574849363, 280.8001217070431 168.12480451067793, 280.10919457362957 168.62106334091084, 279.41432439867344 169.1338760092942, 278.71570536416453 169.66312594133825, 278.0135310193147 170.20869619884826, 277.307994242705 170.7704694618013, 276.5992872048454 171.34832801120154, 275.88760133116597 171.94215371290704, 275.17312726545543 172.5518280024166, 274.4560548337658 173.17723187060753, 273.7365730087958 173.81824585041508, 273.01486987477125 174.4747500044423, 272.2911325928343 175.14662391349154, 271.5655473669556 175.83374666600588, 270.83829941038346 176.53599684841126, 270.1095729126391 177.25325253634776, 269.37955100707296 177.98539128678016, 268.64841573898985 178.73229013097574, 267.9163480343546 179.49382556833984, 267.18352766908623 180.26987356109612, 266.4501332389519 181.06030952980214, 265.7163421300649 181.86500834968737, 264.98233048999833 182.68384434780282, 264.24827319951766 183.51669130096994, 263.51434384494183 184.363422434518, 262.78071469113655 185.22391042179655, 262.0475566551447 186.09802738445256, 261.3150392804615 186.98564489345782, 260.58333071195443 187.88663397087697, 259.8525976714351 188.80086509236128, 259.1230054338846 189.72820819035704, 258.39471780433513 190.66853265801555, 257.6678970954099 191.62170735379155, 256.9427041055243 192.58760060671815, 256.21929809774804 193.56608022234406, 255.49783677933058 194.55701348932126, 254.7784762818883 195.56026718662906, 254.0613711422564 196.57570759142192, 253.34667428400232 197.60320048748756, 252.6345369996012 198.64261117430175, 251.92510893327253 199.69380447666654, 251.21853806447626 200.7566447549187, 250.51497069206545 201.8309959156939, 249.81455141909478 202.91672142323455, 249.11742313828202 204.01368431122552, 248.4237270181186 205.1217471951462, 247.73360248962726 206.2407722851234, 247.04718723376334 207.37062139927232, 246.36461716945405 208.51115597751144, 245.68602644227502 209.6622370958371, 245.01154741375598 210.82372548104473, 244.34131065131453 211.9954815258819, 243.67544491881046 213.17736530461983, 243.01407716771655 214.36923658902933, 242.35733252890154 215.57095486474702, 241.70533430501752 216.78237934801837, 241.05820396348784 218.00336900280294, 240.4160611300892 219.23378255822868, 239.7790235831204 220.47347852638075, 239.14720724815342 221.7223152204113, 238.52072619335905 222.9801507729564, 237.8996926254 224.2468431548459, 237.28421688588602 225.52225019409337, 236.67440744838254 226.80622959515077, 236.0703709159664 228.09863895841582, 235.47221201932126 229.39933579997782, 234.88003361536462 230.70817757158733, 234.29393668639997 232.0250216808377, 233.71402033978512 233.3497255115444, 233.1403818081094 234.68214644430793, 232.5731164498721 236.0221418772486, 232.01231775065386 237.36956924689784, 231.45807732477192 238.72428604923502, 230.91048491741282 240.086149860855, 230.36962840723263 241.4550183602542, 229.8355938094172 242.83074934922192, 229.30846527919346 244.21320077432483, 228.7883251157837 245.6022307484702, 228.27525376679412 246.99769757253745, 227.76932983302828 248.3994597570637, 227.2706300737181 249.80737604397208, 226.77922941216298 251.22130542832937, 226.29520094176755 252.64110718012222, 225.81861593247103 254.06664086603888, 225.34954383755783 255.49776637124398, 224.88805230084108 256.93434392113704, 224.4342071642107 258.37623410307936, 223.98807247553628 259.8232978880815, 223.54971049691693 261.2753966524373, 223.11918171326855 262.73239219929354, 222.69654484123944 264.1941467801468, 222.28185683844663 265.66052311625185, 221.87517291302268 267.13138441993544, 221.47654653346527 268.6065944158016, 221.0860294387797 270.08601736182, 220.70367164890706 271.56951807028486, 220.32952147542764 273.0569619286376, 219.96362553253232 274.54821492013895, 219.60602874825187 276.04314364438477, 219.2567743759376 277.5416153376528, 218.91590400598233 279.0434978930725, 218.58345757777516 280.5486598806087, 218.25947339188036 282.05697056684835, 217.94398812243236 283.5682999345838, 217.6370368297393 285.0825187021812, 217.3386529730847 286.5994983427277, 217.0488684237215 288.1191111029473, 216.7677134780487 289.6412300218785, 216.4952168709629 291.1657289493042, 216.23140578937677 292.692482563927, 215.9763058858967 294.22136639128263, 215.72994129265118 295.7522568213821, 215.4923346352626 297.2850311260777, 215.26350704695454 298.81956747614333, 215.043478182787 300.35574495806486, 214.83226623401166 301.8934435905308, 214.6298879425401 303.4325443406191, 214.43635861551772 304.972929139673, 214.25169213999516 306.5144808988594, 214.0759009976911 308.0570835244041, 213.9089962798387 309.600621932498, 213.75098770210866 311.1449820638692, 213.6018836196023 312.6900508980149, 213.461691041907 314.2357164670886, 213.33041564820903 315.7818678694369, 213.2080618024547 317.32839528278265, 213.09463256855545 318.87518997704655, 212.99012972562878 320.4221443268078, 212.89455378327023 321.96915182339495, 212.80790399684884 323.51610708660564, 212.7301783828206 325.0629058760509, 212.66137373405394 326.6094451021194, 212.60148563516103 328.15562283656084, 212.550508477829 329.70133832268095, 212.50843547614645 331.2464919851506, 212.4752586819172 332.7909854394214, 212.45096899995934 334.33472150074755, 212.4355562033804 335.87760419281216, 212.42900894882652 337.41953875595317, 212.4313147916984 338.9604316549895, 212.4424602013301 340.5001905866449, 212.46243057612503 342.0387244865666, 212.49121025864477 343.5759435359386, 212.52878255064599 345.11175916768855, 212.5751297280605 346.64608407228576, 212.6302330559139 348.17883220313087, 212.69407280317924 349.70991878153575, 212.76662825756063 351.23926030129314, 212.84787774020216 352.76677453283634, 212.93779862031977 354.29238052698673, 213.03636732975025 355.8159986182931, 213.14355937741482 357.33755042795894, 213.2593493636926 358.85695886635926, 213.38371099470132 360.37414813514994, 213.51661709648081 361.88904372896627, 213.65803962907674 363.4015724367149, 213.80794970051988 364.91166234245856, 213.96631758069998 366.4192428258953, 214.13311271512876 367.9242445624337, 214.30830373859052 369.4265995228651, 214.491858488677 370.9262409726354, 214.68374401920377 372.42310347071805, 214.88392661350542 373.917122868089, 215.09237179760706 375.4082363058085, 215.3090443532697 376.89638221270934, 215.53390833090694 378.3815003026953, 215.7669270623708 379.8635315716535, 216.00806317360463 381.34241829398013, 216.25727859716122 382.81810401872696, 216.51453458458332 384.29053356536815, 216.77979171864558 385.75965301919217, 217.05300992545583 387.2254097263215, 217.33414848641394 388.6877522883649, 217.62316605002655 390.14663055670417, 217.9200206435768 391.6019956264201, 218.22466968464667 393.05379982986153, 218.53706999249155 394.5019967298613, 218.85717779926537 395.94654111260326, 219.18494876109517 397.3873889801445, 219.52033796900415 398.82449754259767, 219.86329995968254 400.25782520997683, 220.21378872610427 401.6873315837127, 220.57175772799079 403.11297744784144, 220.93715990211905 404.5347247598709, 221.30994767247452 405.9525366413314, 221.69007296024816 407.3663773680135, 222.07748719367703 408.7762123599005, 222.47214131772793 410.1820081707982, 222.8739858036247 411.58373247766957, 223.28297065821707 412.98135406967856, 223.69904543319336 414.3748428369482, 224.1221592341348 415.76416975903993, 224.5522607294131 417.14930689315844, 224.98929815893013 418.5302273620886, 225.4332193427008 419.90690534187013, 225.88397168927864 421.2793160492152, 226.3415022040252 422.6474357286766, 226.80575749722274 424.0112416395707, 227.27668379203124 425.3707120426621, 227.75422693228995 426.7258261866164, 228.23833239016452 428.07656429422707, 228.72894527363934 429.4229075484225, 229.22601033385698 430.7648380780601, 229.72947197230468 432.10233894351256, 230.2392742478489 433.435394122055, 230.75536088361875 434.76398849305764, 231.27767527373973 436.0881078229906, 231.80616048991766 437.4077387502484, 232.34075928787524 438.7228687698004, 232.8814141136409 440.0334862176735, 233.4280671096923 441.33958025527363, 233.9806601209549 442.6411408535545, 234.5391347006572 443.9381587770367, 235.1034321160435 445.23062556768923, 235.6734933539467 446.51853352867465, 236.24925912622038 447.80187570796863, 236.83066987503426 449.08064588185925, 237.417665778032 450.35483853833347, 238.01018675335445 451.6244488603558, 238.60817246453 452.88947270905015, 239.21156232523182 454.14990660678615, 239.82029550390595 455.4057477201819, 240.43431092827035 456.6569938430276, 241.0535472896874 457.9036433791367, 241.67794304741088 459.1456953251327, 242.30743643271015 460.38314925317763, 242.94196545287218 461.6160052936499, 243.5814678950849 462.8442641177766, 244.22588133020173 464.0679269202308, 244.87514311639111 465.2869954016951, 245.5291904026715 466.50147175140467, 246.18796013233464 467.7113586296707, 246.85138904625924 468.9166591503963, 247.51941368611594 470.11737686358697, 248.19197039746714 471.31351573786526, 248.8689953327625 472.5050801429965, 249.55042445423314 473.69207483242974, 250.23619353668573 474.87450492586413, 250.92623817019947 476.052375891843, 251.62049376272788 477.2256935303876, 252.3188955426068 478.39446395567154, 253.02137856097238 479.5586935787468, 253.72787769408933 480.71838909032465, 254.4383276455934 481.87355744362077, 255.15266294864966 483.0242058372681, 255.87081796802772 484.1703416983052, 256.59272690209883 485.311972665248, 257.31832378475406 486.44910657124666, 258.0475424872483 487.5817514273391, 258.78031671997104 488.70991540580286, 259.51658003414656 489.83360682361416, 260.2562658234661 490.95283412601907, 260.9993073256543 492.0676058702227, 261.7456376239718 493.1779307092024, 262.49518964865695 494.2838173756507, 263.2478961783086 495.38527466605444, 264.0036898412129 496.4823114249144, 264.76250311661477 497.57493652911177, 265.52426833593984 498.66315887242826, 266.28891768396505 499.7469873502223, 267.05638319994335 500.82643084426945, 267.8265967786837 501.901498207772, 268.5994901715892 502.97219825053975, 269.3749949876549 504.03853972435365, 270.1530426944285 505.1005313085095, 270.93356461893654 506.1581815955534, 271.7164919485776 507.2114990772095, 272.50175573198453 508.26049213050726, 273.2892868798608 509.3051690041117, 274.07901616578937 510.34553780486226, 274.8708742270199 511.3816064845238, 275.66479156523474 512.4133828267549, 276.4606985472965 513.4408744342973, 277.2585254059799 514.4640887163927, 278.0582022406905 515.4830328764269, 278.8596590181703 516.4977138998112, 279.6628255731978 517.5081385420988, 280.467631609278 518.5143133173457, 281.27400669933036 519.5162444867165, 282.0818802863745 520.5139380473394, 282.89118168421567 521.5073997214158, 283.7018400781337 522.496634945585, 284.5137845255769 523.4816488605504, 285.3269439568624 524.4624463009682, 286.1412471758879 525.4390317856048, 286.9566228608533 526.4114095077615, 287.77299956499814 527.3795833259742, 288.59030571735417 528.3435567549876, 289.40846962351725 529.3033329570102, 290.2274194664405 530.2589147332476, 291.04708330724935 531.2103045157229, 291.8673890860825 532.1575043593822, 292.6882646229612 533.1005159344887, 293.5096376186861 534.0393405193092, 294.3314356557685 534.9739789930942, 295.1535861993929 535.9044318293519, 295.9760165984178 536.8306990894216, 296.7986540864134 537.752780416346, 297.62142578274023 538.670675029045, 298.44425869366967 539.5843817167914, 299.26707971354983 540.4938988339924, 300.08981562601673 541.3992242952768, 300.91239310525486 542.3003555708883, 301.73473871730846 543.19728968239, 302.5567789214447 544.0900231986751, 303.37844007157213 544.9785522322911, 304.19964841771565 545.8628724360752, 305.02033010754917 546.7429790001008, 305.8404111879899 547.6188666489385, 306.6598176068547 548.4905296392303, 307.47847521457993 549.3579617575788, 308.29630976600896 550.2211563187499, 309.1132469222462 551.0801061641907, 309.9292122525827 551.9348036608646, 310.74413123649157 552.7852407003977, 311.55792926569876 553.631408698544, 312.3705316463287 554.4732985949634, 313.18186360112605 555.3109008533154, 313.9918502717579 556.1442054616674, 314.80041672119575 556.9732019332159, 315.60748793617955 557.7978793073219, 316.4129888297673 558.6182261508587, 317.2168442439681 559.4342305598726, 318.01897895246503 560.2458801615528, 318.819317663425 561.0531621165126, 319.61778502240077 561.8560631213803, 320.4143056153243 562.6545694116963, 321.20880397159436 563.4486667651177, 322.0012045672591 564.2383405049279, 322.7914318282963 565.0235755038509, 323.5794101339912 565.8043561881644, 324.3650638204146 566.5806665421187, 325.1483171840023 567.3524901126482, 325.9290944852376 568.1198100143854, 326.70731995243733 568.8826089349654, 327.48291778564453 569.640869140625, 328.2558121606269 570.3945724820924, 329.02592723298466 571.1437004007648, 329.79318714236774 571.8882339351723, 330.5575160168036 572.6281537277251, 331.3188379771379 573.3634400317419, 332.07707714158806 574.0940727187559, 332.83215763041227 574.8200312860978, 333.58400357069354 575.5412948647509, 334.33253910124216 576.2578422274754, 335.07768837761495 576.9696517972012, 335.8193755772552 577.6767016556838, 336.5575249047524 578.3789695524201, 337.29206059722395 579.0764329138241, 338.0229069298189 579.7690688526534, 338.74998822134665 580.4568541776896, 339.4732288400291 581.1397654036642, 340.1925532093786 581.8177787614287, 340.9078858142032 582.4908702083648, 341.6191512067393 583.1590154390303, 342.3262740129115 583.8221898960394, 343.02917893872365 584.4803687811682, 343.7277907767787 585.1335270666887, 344.42203441292963 585.7816395069209, 345.1118348330621 586.4246806500018, 345.7971171300104 587.0626248498685, 346.4778065106052 587.6954462784457, 347.1538283028559 588.3231189380416, 347.82510796326767 588.945616673939, 348.49157108429296 589.5629131871838, 349.15314340191935 590.1749820475629, 349.80975080339346 590.7817967067693, 350.46131933508144 591.3833305117449, 351.10777521046725 591.9795567182033, 351.7490448182885 592.5704485043232, 352.3850547308101 593.1559789846068, 353.01573171223737 593.7361212239022, 353.64100272726773 594.3108482515825, 354.2607949497811 594.8801330758748, 354.8750357716712 595.4439486983385, 355.4836528118157 596.002268128483, 356.0865739251868 596.5550643985241, 356.68372721210227 597.1023105782697, 357.27504102761657 597.6439797901321, 357.86044399105305 598.1800452242613, 358.43986499567643 598.7104801537937, 359.0132332185059 599.2352579502088, 359.5804781302692 599.754352098792, 360.1415295054979 600.267736214196, 360.6963174327614 600.7753840560944, 361.2447723250435 601.2772695449235, 361.7868249302585 601.7733667777056, 362.32240634190674 602.2636500439497, 362.85144800987143 602.7480938416209, 363.3738817513537 603.2266728931753, 363.8896397619479 603.6993621616552, 364.3986546268555 604.1661368668346, 364.9008593322373 604.6269725014135, 365.39618727670415 605.0818448472547, 365.88457228294504 605.5307299916532, 366.36594860949197 605.9736043436365, 366.8402509626216 606.4104446502886, 367.30741450839275 606.8412280130913, 367.7673748848185 607.2659319042749, 368.2200682141735 607.6845341831777, 368.6654311154345 608.0970131126013, 369.10340071685306 608.5033473751607, 369.53391466866134 608.9035160896216, 369.9569111559082 609.2974988272168, 370.3723289114252 609.6852756279391, 370.7801072289222 610.0668270168014, 371.1801859762101 610.4421340200598, 371.57250560855107 610.8111781813922, 371.9570071821341 611.1739415780266, 372.3336323676743 611.5304068368142, 372.7023234641366 611.8805571502381, 373.0630234125803 612.224376292354, 373.4156758101232 612.5618486346559, 373.76022492402655 612.8929591618603, 374.0966157058953 613.2176934876027, 374.4247938059954 613.5360378700393, 374.7447055876851 613.8479792273505, 375.0562981419575 614.1535051531353, 375.35951930209575 614.4526039316961, 375.65431765843545 614.7452645532011, 375.94064257323447 615.031476728725, 376.2184441956486 615.3112309051551, 376.48767347680916 615.5845182799616, 376.74828218500244 615.8513308158241, 377.0002229209471 616.1116612551057, 377.2434491331698 616.3655031341746, 377.47791513347346 616.6128507975593, 377.70357611249887 616.8536994119374, 377.92038815537575 617.088044979949, 378.12830825746073 617.3158843538286, 378.32729434016085 617.5372152488509, 378.517305266838 617.7520362565821, 378.69830085879465 617.9603468579331, 378.8702419113348 618.1621474360066, 379.03309020989974 618.357439288733, 379.1868085462749 618.5462246412884, 379.3313607348646 618.7285066582907, 379.46671162903266 618.9042894557646, 379.59282713750457 619.0735781128725, 379.7096742408289 619.2363786834035, 379.81722100789426 619.3926982070166, 379.91543661249955 619.542544720229, 380.004291349972 619.6859272671488, 380.0837566538323 619.82285590994, 380.15380511250106 619.9533417390202, 380.21441048604385 620.0773968829814, 380.2655477229516 620.1950345182288, 380.30719297695185 620.3062688783345, 380.3393236238474 620.4111152630971, 380.3619182783786 620.5095900473042, 380.3749568111048 620.6017106891909, 380.3784203653016 620.6874957385903, 380.3722913738691 620.7669648447696, 380.35655357624734 620.8401387639461, 380.331192035335 620.9070393664797, 380.29619315440544 620.9676896437348, 380.2515446940182 621.0221137146074, 380.1972357889188 621.070336831712, 380.13325696492404 621.1123853872245, 380.05960015578734 621.1482869183736, 379.97625872003977 621.1780701125783, 379.8832274578007 621.2017648122256, 379.7805026275558 621.2194020190839, 379.66808196289423 621.2310138983462, 379.5459646892023 621.2366337823023, 379.41415154030716 621.2362961736288, 379.2726447750656 621.2300367483, 379.1214481938933 621.2178923581092, 378.96056715522764 621.1999010328004, 378.7900085919209 621.1761019818028, 378.6097810275549 621.1465355955654, 378.41989459267546 621.1112434464897, 378.22036104093723 621.0702682894514, 378.01119376515607 621.0236540619132, 377.79240781326115 620.9714458836195, 377.5640199041413 620.9136900558722, 377.32604844338005 620.8504340603846, 377.07851353887315 620.7817265577075, 376.8214370163217 620.7076173852247, 376.554842434595 620.6281575547157, 376.2787551009572 620.5433992494818, 375.99320208615114 620.4533958210303, 375.69821223933184 620.3582017853188, 375.39381620284485 620.257872818549, 375.0800464268411 620.1524657525156, 374.756937183723 620.0420385695005, 374.4245245824138 619.9266503967141, 374.08284658244366 619.8063615002774, 373.7319430078469 619.6812332787484, 373.37185556086 619.5513282561816, 373.0026278354174 619.4167100747268, 372.6243053304352 619.2774434867604, 372.23693546287603 619.1335943465488, 371.8405675805886 618.9852296014408, 371.4352529749139 618.8324172825882, 371.0210448930505 618.6752264951932, 370.5979985501724 618.5137274082806, 370.16617114129014 618.3479912439923, 369.7256218528503 618.1780902664062, 369.2764118740622 618.0040977698725, 368.81860440794793 617.8260880668734, 368.35226468210385 617.6441364754008, 367.87745995917004 617.4583193058513, 367.3942595469956 617.2687138474396, 366.90273480849544 617.0753983541299, 366.4029591711883 616.8784520300836, 365.89500813640836 616.6779550146225, 365.37895928818335 616.473988366712, 364.85489230177024 616.2666340489567, 364.32288895183984 616.0559749111177, 363.78303312030334 615.8420946731441, 363.2354108037717 615.6250779077232, 362.6801101206397 615.4050100223512, 362.11722131778663 615.1819772409219, 361.5468367768848 614.9560665848359, 360.96905102030826 614.7273658536334, 360.3839607166322 614.4959636051492, 359.79166468571566 614.2619491351921, 359.19226390335865 614.0254124567526, 358.585861505525 613.7864442787371, 357.9725627921227 613.5451359842338, 357.3524752303333 613.3015796083105, 356.7257084574821 613.0558678153494, 356.0923742834394 612.8080938759176, 355.45258669254565 612.5583516431774, 354.8064618450521 612.3067355288442, 354.1541180780662 612.0533404786869, 353.49567590599634 611.798261947579, 352.8312580204853 611.541595874106, 352.1609892898239 611.2834386547258, 351.4849967578384 611.0238871174938, 350.80340964224035 610.7630384953512, 350.1163593324322 610.5009903989842, 349.4239793867603 610.2378407892554, 348.7264055292061 609.9736879492172, 348.0237756455075 609.708630455705, 347.3162297787022 609.4427671505233, 346.6039101240846 609.1761971112235, 345.886961023568 608.9090196214819, 345.16552895944415 608.6413341410849, 344.4397625475312 608.373240275524, 343.70981252970364 608.1048377452104, 342.97583176579406 607.8362263543127, 342.23797522486046 607.5675059592271, 341.4963999758106 607.298776436684, 340.75126517737505 607.030137651502, 340.0027320674229 606.7616894239918, 339.25096395161023 606.493531497024, 338.49612619135564 606.2257635027607, 337.73838619113394 605.9584849290675, 336.9779133850822 605.6917950856074, 336.2148792229099 605.4257930696288, 335.44945715510516 605.1605777314564, 334.68182261743283 604.8962476396921, 333.9121530147141 604.6329010461372, 333.1406277038835 604.370635850445, 332.3674279763155 604.1095495645128, 331.59273703941415 603.8497392766247, 330.8167399974593 603.5913016153562, 330.03962383170443 603.3343327132468, 329.26157737971795 603.0789281702594, 328.4827913139639 602.82518301703, 327.70345811961556 602.573191677923, 326.92377207159564 602.3230479339051, 326.1439292108396 602.0748448852462, 325.3641273197745 601.8286749140611, 324.58456589701115 601.584629646708, 323.8054461312414 601.34279991605, 323.0269708743389 601.1032757235995, 322.2493446136577 600.8661462015535, 321.4727734435242 600.6314995747382, 320.69746503591927 600.3994231224735, 319.92362861034565 600.1700031403735, 319.15147490287904 599.9433249020965, 318.3812161343976 599.719472621062, 317.6130659779881 599.4985294121454, 316.8472395255254 599.2805772533708, 316.0839532534234 599.0656969476147, 315.32342498755406 598.8539680843379, 314.56587386733514 598.6454690013619, 313.8115203089808 598.4402767467055, 313.0605859679182 598.238467040502, 312.3132937003662 598.0401142370088, 311.5698675240764 597.8452912867338, 310.8305325782359 597.654069698691, 310.0955150825321 597.4665195028065, 309.3650422953793 597.2827092124933, 308.6393424713077 597.1027057874132, 307.91864481751634 596.9265745964452, 307.2031794495904 596.7543793808811, 306.49317734638515 596.5861822178665, 305.78887030407867 596.4220434841092, 305.0904908893951 596.2620218198739, 304.3982723920015 596.1061740932854, 303.7124487760824 595.9545553649621, 303.03325463109394 595.8072188529984, 302.360925121703 595.664215898322, 301.69569593691546 595.5255959304448, 301.03780323839777 595.3914064336313, 300.38748360799815 595.2616929135099, 299.7449739944728 595.1364988641435, 299.11051165942246 595.0158657355915, 298.4843341224477 594.8998329019806, 297.8666791055285 594.7884376301113, 297.2577844766366 594.6817150486233, 296.6578881925887 594.579698117748, 296.06722824114837 594.4824175996672, 295.4860425823876 594.3899020295097, 294.91456908931457 594.3021776870071, 294.35304548778134 594.2192685688385, 293.8017092956797 594.1411963616862, 293.26079776143706 594.0679804160344, 292.73054780182446 593.9996377207325, 292.211195939089 593.9361828783557, 291.70297823742294 593.877628081386, 291.20613023878445 593.8239830892442, 290.72088689808186 593.7752552062009, 290.2474825177383 593.7314492601948, 289.7861506816507 593.6925675825858, 289.3371241885594 593.6586099888756, 288.9006349848446 593.6295737604223, 288.4769140967673 593.6054536271782, 288.0661915621722 593.586241751485, 287.66869636167115 593.5719277129521, 287.28465634932525 593.562498494451, 286.91429818284735 593.5579384692571, 286.55784725334274 593.5582293893693, 286.2155276146121 593.5633503750374, 285.8875619120355 593.5732779055315, 285.57417131106183 593.5879858111857, 285.27557542532696 593.6074452667436, 284.991992244422 593.6316247860453, 284.7236380613405 593.6604902180811, 284.4707273996256 593.6940047444509, 284.2334729402465 593.7321288782589, 284.0120854482282 593.7748204644781, 283.8067736990654 593.8220346818177, 283.6177444049454 593.8737240461287, 283.44520214081217 593.9298384153786, 283.2893492702983 593.990324996233, 283.15038587155965 594.0551283522753, 283.0285096630389 594.124190413901, 282.9239159291958 594.1974504899205, 282.83679744623214 594.2748452809043, 282.7673444078493 594.3563088943084, 282.71574435107016 594.4417728614104, 282.6821820821627 594.5311661560952, 282.66683960270086 594.6244152155256, 282.6698960357998 594.7214439627298, 282.69152755256374 594.8221738311443, 282.7319072987852 594.9265237911466, 282.79120532193593 595.0344103786147, 282.86958849848827 595.1457477255443, 282.96722046161136 595.2604475927668, 283.0842615292814 595.3784194047961, 283.22086863285136 595.4995702868456, 283.37719524612316 595.6238051040481, 283.553391314968 595.7510265029143, 283.74960318753983 595.8811349550655, 283.96597354512915 596.014028803278, 284.2026413337055 596.1496043098721, 284.45974169619547 596.2877557074802, 284.737405905548 596.428375252234, 285.0357612986348 596.5713532793982, 285.3549312110396 596.7165782614942, 285.69503491278664 596.86393686894, 286.05618754506224 597.0133140332488, 286.4385000579842 597.1645930128122, 286.84207914947194 597.3176554613099, 287.26702720527646 597.4723814987738, 287.7134422402227 597.628649785343, 288.18141784072697 597.7863375977417, 288.6710431086433 597.9453209085128, 289.18240260650265 598.1054744680391, 289.7155763042017 598.2666718893871, 290.27063952720584 598.4287857359986, 290.8476629063262 598.5916876122693, 291.4467123291363 598.755248257038, 292.06784889308983 598.919337640021, 292.71112886040873 599.0838250612203, 293.3766036148022 599.2485792533313, 294.06431962008946 599.413468487186, 294.77431838078934 599.5783606802507, 295.5066364047484 599.7431235082115, 296.2613051678765 599.9076245196719, 297.0383510810597 600.0717312539896, 297.8377954593232 600.2353113622728, 298.6596544933155 600.3982327315692, 299.5039392231886 600.560363612261, 300.3706555149467 600.721572748695, 301.25980403933943 600.881729513068, 302.17138025337545 601.0407040425866, 303.10537438453264 601.1983673799216, 304.0617714177433 601.3545916169774, 305.0405510852313 601.509250041991, 306.04168785928334 601.6622172899804, 307.0651509480294 601.8133694965526, 308.1109042943194 601.9625844550926, 309.1789065777731 602.1097417773378, 310.2691112200865 602.2547230573562, 311.3814663936798 602.3974120389338, 312.51591503376966 602.5376947863833, 313.6723948539496 602.675459858779, 314.85083836536495 602.8105984876246, 316.0511728995696 602.9430047579576, 317.2733206351484 603.072575792894, 318.51719862819505 603.199211941612, 319.78271884673325 603.3228169707776, 321.06978820916936 603.4432982594035, 322.3783086268661 603.5605669971443, 323.70817705092674 603.6745383860147, 325.0592855232829 603.7851318455271, 326.4315212321724 603.8922712212361, 327.8247665721039 603.9958849966769, 329.238899208397 604.0959065086855, 330.6737921463917 604.1922741660813, 332.1293138054198 604.2849316716928, 333.6053280976337 604.3738282477082, 335.10169451178274 604.4589188643224, 336.6182682020353 604.5401644716574, 338.15490008193916 604.6175322349254, 339.71143692361545 604.6909957728028, 341.2877214622814 604.7605353989809, 342.8835925061981 604.8261383668574, 344.4988850521387 604.8877991173248, 346.1334304064706 604.9455195296172, 347.7870563119537 604.9993091751656, 349.45958708034277 605.0491855744131, 351.1508437308982 605.0951744565389, 352.8606441348951 605.1373100220336, 354.58880316623043 605.1756352080673, 356.33513285822437 605.210201956585, 358.09944256671065 605.2410714850674, 359.88153913951277 605.2683145598834, 361.6812270924013 605.2920117721608, 363.4983087916304 605.3122538160967, 365.3325846431438 605.3291417696298, 367.1838532885522 605.3427873773815, 369.05191180797016 605.3533133357829, 370.9365559298116 605.3608535802863, 372.83758024763574 605.3655535745689, 374.75477844413615 605.3675706016186, 376.68794352236796 605.3670740566001, 378.6368680443028 605.3642457413831, 380.6013443768049 605.3592801606171, 382.58116494511853 605.3523848192303, 384.57612249395567 605.3437805212257, 386.5860103562741 605.3337016696347, 388.6106227298342 605.3223965674998, 390.64975496162003 605.3101277197361, 392.70320384021375 605.2971721357185, 394.7707678962032 605.2838216324492, 396.8522477107131 605.270383138136, 398.94744623213586 605.2571789960145, 401.05616910114867 605.2445472682456, 403.1782249840905 605.2328420397038, 405.3134259147845 605.2224337214717, 407.46158764487546 605.2137093538458, 409.62253000276286 605.2070729086594, 411.79607726119804 605.2029455907068, 413.98205851362115 605.2017661380652, 416.1803080593037 605.2039911210842, 418.39066579736834 605.2100952398217, 420.61297762974624 605.2205716196861, 422.8470958731401 605.2359321050412, 425.0928796800511 605.2567075505273, 427.35019546892886 605.2834481098295, 429.61891736350134 605.3167235216367, 431.89892764133833 605.357123392505, 434.19011719169794 605.4052574763483, 436.4923859827061 605.4617559502567, 438.8056435379143 605.5272696863459, 441.12980942227665 605.6024705193198, 443.4648137375867 605.6880515094306, 445.8105976274103 605.7847272005027, 448.1671137915465 605.893233872682, 450.5343270100456 606.0143297895589, 452.9122146768128 606.1487954393051, 455.300767342816 606.2974337694545, 457.69998926891753 606.4610704149466, 460.1098989883469 606.6405539190393, 462.5305298788214 606.8367559466885, 464.96193074432085 607.050571489984, 467.4041664065231 607.2829190652064, 469.85731830589145 607.5347409010836, 472.32148511241303 607.8070031177783, 474.79678334597 608.1006958961639, 477.28334800633456 608.4168336368999, 479.78133321275834 608.7564551088336, 482.29091285313615 609.1206235862155, 484.81228124270615 609.5104269742303, 487.34565379225467 609.9269779223057, 489.89126768577853 610.3714139246684, 492.4493825675552 610.8448974075899, 495.02028123857133 611.3486158027545, 497.6042703622428 611.8837816061715, 500.2016811793633 612.4516324220339, 502.81287023220256 613.0534309909062, 505.43822009768155 613.6904652016283, 508.0781401295319 614.3640480862787, 510.7330672093452 615.0755177975484, 513.4034665064164 615.8262375678505, 516.0898322462654 616.6175956494703, 518.7926884877263 617.4510052350545, 521.5125899084805 618.3279043577128, 524.250122598897 619.2497557699895, 527.0059048640455 620.2180468009476, 529.78058803373 621.2342891905901, 532.5748572803907 622.3000189008155, 535.3894324447034 623.4167959021065, 538.2250688687084 624.5862039351028, 541.0825582362759 625.8098502462226, 543.9627294207281 627.0893652964453, 546.866449339402 628.4264024423761, 549.7946238149509 629.8226375886713, 552.7481984431545 631.2797688108965, 555.7281594670119 632.7995159478625, 558.735534656867 634.3836201624606, 561.7713941963186 636.0338434700041, 564.8368515736445 637.7519682330543, 567.9330644784696 639.539796621688, 571.0612357033826 641.3991500381444, 574.2226140502071 643.3318685047592, 577.4184952406138 645.3398100140762, 580.6502228307487 647.4248498399987, 583.9191891295434 649.5888798088222, 587.226836120351 651.8338075289566, 590.5746563855553 654.1615555781337, 593.9641940337685 656.574060646857, 597.3970456292313 659.0732726368315, 600.8748611230112 661.6611537130868, 604.3993447855801 664.3396773084684, 607.9722561403394 667.1108270791599, 611.5954108976446 669.9765958098577, 615.2706818888639 672.9389842671972, 619.0 676.0, " stroke="black" fill="transparent"/>
</svg>