<svg width="800" height="800" xmlns="http://www.w3.org/2000/svg">
	<path d = "M 481.0 128.0 C 480.0483058032759 126.90039640497564, 479.11725627456565 125.9136856425713, 478.206887426087 125.03705876037867, 477.3172176218462 124.26776079835801, 476.4482481414397 123.60308993202104, 475.59996373292034 123.0403966259916, 474.7723331548942 122.57708279786544, 473.96530970800023 122.21060099229025, 473.178831755934 121.93845356518774, 472.4128232361696 121.75819187803947, 471.6671941605298 121.66741550215696, 470.941841105759 121.66377143285965, 470.2366476942458 121.74495331347997, 469.55148506504327 121.90870066911958, 468.88621233533337 122.15279815007635, 468.24067705247666 122.47507478486605, 467.6147156367926 122.87340324275932, 467.00815381520704 123.34569910575621, 466.42080704590984 123.88992014992102, 465.85248093415424 124.50406563599928, 465.3029716393368 125.18617560923907, 464.77206627349034 125.93433020833982, 464.2595432913205 126.74664898345071, 463.765172871917 127.62129022314156, 463.2887172922684 128.55645029026957, 462.82993129270557 129.5503629666642, 462.3885624344006 130.6012988065544, 461.9643514490449 131.7075644986609, 461.5570325808263 132.86750223687736, 461.1663339208289 134.07948909946424, 460.79197773397243 135.34193643667953, 460.433680778609 136.65328926677, 460.0911546188941 138.0120256802476, 459.7641059300452 139.416656252376, 459.4522367966024 140.86572346379123, 459.15524500379985 142.35780112918172, 458.8728243221635 143.89149383395377, 458.6046647854373 145.46543637880634, 458.35045296195057 147.07829323214207, 458.1098722195287 148.72875799024007, 457.8826029840554 150.4155528451165, 457.6683229917863 152.1374280599998, 457.4667075355178 153.89316145234608, 457.27742970471127 155.68155788432352, 457.10016061967116 157.50144876069098, 456.93456965987696 159.35169153399954, 456.7803246865624 161.23116921704434, 456.6370922596411 163.13878990249438, 456.50453784906887 165.07348628962941, 456.3823260407399 167.03421521811146, 456.2701207370035 169.01995720872046, 456.1675853518969 171.02971601098352, 456.0743830011792 173.06251815762596, 455.99017668725764 175.1174125257757, 455.9146294790902 177.19346990484928, 455.84740468715313 179.28978257105132, 455.7881660335558 181.40546386841697, 455.7365778173875 183.53964779632958, 455.6923050753773 185.69148860344362, 455.6550137379504 187.86016038794537, 455.6243707807582 190.04485670408346, 455.60004437176366 192.2447901749007, 455.5817040139575 194.45919211110078, 455.5690206837849 196.6873121359825, 455.56166696535576 198.92841781637438, 455.5593171805154 201.18179429950482, 455.56164751484823 203.44674395573915, 455.56833613968746 205.72258602712137, 455.57906333020327 208.00865628165235, 455.59351157963897 210.3043066732411, 455.61136570976635 212.60890500726413, 455.6323129776273 214.92183461166914, 455.6560431786313 217.24249401355837, 455.6822487460753 219.5702966211887, 455.71062484715026 221.90467041132527, 455.74086947550177 224.2450576218864, 455.77268354040876 226.59091444981607, 455.80577095264016 228.9417107541234, 455.8398387070567 231.2969297640272, 455.8745969620162 233.65606779214338, 455.9097591156432 236.01863395265536, 455.9450418790249 238.38414988440735, 455.9801653463879 240.75214947885868, 456.0148530623195 243.12217861284142, 456.04883208608607 245.49379488606058, 456.0818330531065 247.86656736327888, 456.1135902336377 250.2400763211266, 456.1438415887245 252.61391299947928, 456.17232882346985 254.98767935734517, 456.1987974376774 257.3609878332042, 456.2229967739199 259.7334611097432, 456.24468006308376 262.1047318829291, 456.26360446744246 264.474442635365, 456.2795311213072 266.8422454138728, 456.29222516930537 269.207801611247, 456.3014558023358 271.57078175212496, 456.30699629124734 273.93086528291894, 456.3086240182895 276.2877403657551, 456.3061205063816 278.6411036763666, 456.2992714462454 280.990660205887, 456.2878667214473 283.3361230664905, 456.27170043139444 285.6772133008269, 456.2505709123286 288.01365969519986, 456.22428075636066 290.34519859643444, 456.1926368285896 292.6715737323843, 456.15545028234584 294.9925360360287, 456.11253657260175 297.3078434731043, 456.06371546759044 299.61726087322745, 456.0088110586712 301.920559764452, 455.94765176848176 304.21751821121643, 455.88007035741754 306.5079206556308, 455.80590392847387 308.79155776205306, 455.7249939304905 311.06822626491, 455.6371861598352 313.3377288197109, 455.5423307605618 315.5998738572113, 455.4402822230808 317.85447544067495, 455.330899381376 320.10135312619127, 455.21404540880246 322.34033182600075, 455.0895878125007 324.57124167478224, 454.95739842646105 326.7939178988567, 454.8173534032694 329.008200688264, 454.66933320457 331.21393507166636, 454.51322259027506 333.41097079403573, 454.3489106065546 335.5991621970795, 454.1762905726355 337.77836810236477, 453.99526006644385 339.9484516970937, 453.80572090911716 342.109280422491, 453.6075791484181 344.2607258647604, 453.40074504107963 346.4026636485667, 453.1851330341079 348.5349733330056, 452.9606617450736 350.6575383100162, 452.72725394141855 352.77024570519944, 452.4848365188045 354.8729862809997, 452.2333404785321 356.9656543422113, 451.9727009040557 359.0481476437694, 451.7028569366208 361.1203673007882, 451.42375175004815 363.18221770080504, 451.13533252469296 365.23360641819505, 450.8375504205999 367.2744441307173, 450.53036054988144 369.3046445381546, 450.2137219483421 371.3241242830109, 449.8875975463726 373.33280287322884, 449.5519541391366 375.33060260689234, 449.20676235607374 377.31744849887684, 448.85199662974014 379.2932682094131, 448.4876351640095 381.25799197452903, 448.1136599016561 383.2115525383342, 447.7300564913404 385.15388508711357, 447.33681425401886 387.0849271851962, 446.9339261487988 389.0046187125653, 446.5213887382564 390.9129018041766, 446.09920215324166 392.8097207909516, 445.66737005718534 394.6950221424144, 445.2258996099302 396.5687544109384, 444.7748014311041 398.4308681775737, 444.3140895630536 400.2813159994201, 443.8437814333562 402.1200523585189, 443.3638978169294 403.94703361222986, 442.8744627977539 405.76221794506375, 442.3755037302275 407.5655653219421, 441.86705120016836 409.3570374428522, 441.3491389854817 411.1365976988701, 440.8218040165091 412.90421112952225, 440.2850863360736 414.65984438145637, 439.73902905923916 416.40346566839565, 439.1836783327964 418.1350447323451, 438.6190832944937 419.8545528060267, 438.04529603202616 421.561962576513, 437.4623715417962 423.2572481500343, 436.870367687463 424.9403850179317, 436.2693451582926 426.6113500237318, 435.65936742732237 428.2701213313155, 435.04050070935557 429.9166783941567, 434.4128139187964 431.55100192560485, 433.7763786273403 433.1730738701886, 433.1312690215325 434.7828773759141, 432.47756186020604 436.3803967675346, 431.81533643181257 437.9656175207687, 431.1446745116576 439.53852623744194, 430.4656603190522 441.099110621531, 429.77838047439207 442.64735945608567, 429.0829239561766 444.18326258100785, 428.3793820579782 445.70681087166383, 427.6678483453719 447.21799621831025, 426.94841861283857 448.7168115063102, 426.22119084064894 450.2032505971199, 425.48626515174175 451.6773083100237, 424.7437437686037 453.13898040459884, 423.9937309701619 454.5882635638875, 423.23633304869963 456.0251553782582, 422.4716582668027 457.44965432993547, 421.69981681434746 458.86175977818016, 420.9209207655377 460.26147194509923, 420.13508403600207 461.6487919020686, 419.3424223399578 463.0237215567485, 418.5430531474506 464.3862636406757, 417.73709564167916 465.73642169741197, 416.92467067641195 467.0742000712338, 416.1059007335045 468.3996038963445, 415.2809098805248 469.71263908659205, 414.4498237284941 471.013312325677, 413.61276938975203 472.3016310578325, 412.76987543595067 473.57760347896135, 411.9212718561873 474.84123852821466, 411.0670900152816 476.09254587999425, 410.2074626122038 477.331535936367, 409.3425236386605 478.5582198198733, 408.472408337846 479.7726093667152, 407.5972531633632 480.974717120312, 406.7171957383218 482.16455632520575, 405.83237481462004 483.34214092130526, 404.9429302324144 484.5074855384541, 404.0490028797841 485.66060549130765, 403.1507346525959 486.80151677450954, 402.2482684145744 487.93023605815085, 401.34174795758366 489.0467806835003, 400.4313179621238 490.15116865899546, 399.51712395805055 491.24341865647955, 398.59931228551864 492.3235500076728, 397.67803005615855 493.39158270086784, 396.7534251144866 494.4475373778369, 395.82564599955697 495.49143533093826, 394.8948419068566 496.52329850041303, 393.9611626504503 497.54314947186043, 393.02475862537824 498.5510114738806, 392.0857807703101 499.546908375876, 391.14438053046183 500.53086468599895, 390.200709820775 501.502905549239, 389.254920989367 502.4630567456355, 388.307166781252 503.4113446886117, 387.35760030233814 504.3477964234156, 386.40637498370404 505.27243962566337, 385.4536445461577 506.18530259997175, 384.49956296508066 507.0864142786762, 383.5442844355617 507.9758042206211, 382.5879633378213 508.85350261001713, 381.63075420293194 509.71954025535786, 380.67281167883465 510.57394858838524, 379.71429049665664 511.4167596630991, 378.7553454373313 512.2480061548017, 377.7961312985238 513.0677213591721, 376.8368028618641 513.8759391913579, 375.8775148604904 514.672694185087, 374.9184219469045 515.4580214917826, 373.95967866114233 516.2319568796822, 373.00143939926056 516.9945367329509, 372.04385838214216 517.7457980507835, 371.0870896246222 518.4857784464907, 370.13128690493625 519.2145161465619, 369.17660373449326 519.9320499897003, 368.2231933279733 520.6384194258245, 367.2712085737538 521.3336645150314, 366.3208020046643 522.0178259265149, 365.3721257690711 522.6909449374366, 364.425331602295 523.3530634317433, 363.480570798361 524.0042238989263, 362.5379941820827 524.6444694327173, 361.59775208148267 525.2738437297206, 360.6599943005486 525.8923910879719, 359.7248700923282 526.5001564054239, 358.79252813236144 527.0971851783538, 357.8631164924535 527.6835234996885, 356.9367826147875 528.2592180572436, 356.0136732863783 528.8243161318762, 355.09393461386884 529.3788655955422, 354.1777119986677 529.9229149092622, 353.26515011243083 530.4565131209873, 352.35639287288717 530.9797098633643, 351.45158342000707 531.4925553513991, 350.55086409251635 531.9951003800132, 349.6543764047543 532.4873963214923, 348.76226102387835 532.9694951228236, 347.874657747412 533.4414493029229, 346.99170548114074 533.9033119497451, 346.1135422173514 534.355136717279, 345.24030501341934 534.7969778224239, 344.3721299707401 535.2288900417464, 343.50915221400766 535.6509287081169, 342.65150587083855 536.0631497072219, 341.79932405174054 536.4656094739532, 340.9527388304287 536.8583649886723, 340.1118812244853 537.2414737733478, 339.2768811763651 537.6149938875665, 338.4478675347459 537.978983924416, 337.62496803622304 538.3335030062387, 336.80830928734787 538.6786107802571, 335.99801674701035 539.0143674140686, 335.19421470916404 539.3408335910087, 334.39702628589464 539.6580705053879, 333.60657339082917 539.9661398575913, 332.8229767228883 540.2651038490534, 332.0463557503781 540.5550251770973, 331.27682869542264 540.835967029646, 330.51451251873556 541.1079930797991, 329.75952290473106 541.3711674802834, 329.01197424697136 541.6255548577689, 328.2719796339528 541.8712203070567, 327.5396508352269 542.1082293851371, 326.81509828785715 542.3366481051183, 326.0984310832102 542.556542930027, 325.3897569540798 542.7679807664797, 324.6891822621442 542.9710289582299, 323.9968119857532 543.1657552795855, 323.31274970804725 543.3522279287038, 322.6370976054042 543.530515520761, 321.9699564362148 543.7006870809978, 321.31142552998415 543.8628120376441, 320.6616027767604 544.0169602147213, 320.020584616886 544.1632018247263, 319.38846603107277 544.3016074611963, 318.76534053079916 544.4322480911553, 318.1513001490275 544.5551950474476, 317.5464354312404 544.6705200209549, 316.95083542679515 544.7782950527006, 316.36458768059435 544.8785925258456, 315.7877782250715 544.9714851575709, 315.2204915724902 545.0570459908552, 314.66281070755446 545.1353483861458, 314.11481708033136 545.2064660129245, 313.5765905994805 545.2704728411719, 313.0482096257921 545.3274431327312, 312.52975096603075 545.3774514325723, 312.02128986708317 545.4205725599605, 311.5229000104083 545.4568815995306, 311.0346535067889 545.486453892267, 310.55662089138167 545.5093650263946, 310.08887111906546 545.5256908281813, 309.6314715600849 545.5355073526533, 309.18448799598804 545.5388908742277, 308.7479846158569 545.5359178772619, 308.3220240128278 545.5266650465246, 307.9066671809005 545.5112092575894, 307.50197351203434 545.4896275671521, 307.1080007935297 545.4619972032777, 306.72480520569195 545.4283955555761, 306.35244131977714 545.388900165308, 305.9909620962168 545.34358871543, 305.64041888312005 545.2925390205719, 305.30086141505217 545.2358290169572, 304.97233781208456 545.1735367522627, 304.6548945791191 545.1057403754256, 304.3485766054792 545.032518126395, 304.0534271647707 544.9539483258349, 303.76948791500655 544.8701093647778, 303.4967988989963 544.7810796942344, 303.23539854499586 544.6869378147603, 302.98532366761765 544.5877622659817, 302.7466094689968 544.4836316160852, 302.51928954021355 544.3746244512707, 302.30339586296776 544.2608193651755, 302.0989588115052 544.1422949482645, 301.9060071547916 544.0191297771972, 301.72456805893387 543.8914024041686, 301.5546670898454 543.759191346229, 301.39632821615373 543.622575074585, 301.24957381234793 543.4816320038841, 301.1144246621638 543.3364404814861, 300.99089996220494 543.1870787767226, 300.8790173257964 543.0336250701511, 300.7787927870696 542.8761574427988, 300.690240805277 542.7147538654091, 300.613374269331 542.5494921876835, 300.5482045025696 542.3804501275291, 300.4947412677416 542.2077052603088, 300.4529927722131 542.0313350081013, 300.42296567339076 541.8514166289713, 300.4046650843588 541.6680272062517, 300.3980945797305 541.481243637843, 300.4032562017083 541.2911426255301, 300.4201504663527 541.0978006643217, 300.4487763700563 540.9012940318115, 300.48913139622033 540.7016987775671, 300.5412115221335 540.4990907125481, 300.60501122604717 540.2935453985536, 300.6805234944477 540.085138137707, 300.76773982952216 539.8739439619746, 300.86665025681464 539.6600376227257, 300.9772433330713 539.4434935803318, 301.09950615427186 539.2243859938138, 301.23342436384473 539.0027887105325, 301.3789821610635 538.7787752559295, 301.53616230962183 538.5524188233217, 301.7049461463852 538.323792263747, 301.8853135903166 538.0929680758691, 302.07724315157327 537.8600183959396, 302.28071194077216 537.6250149878231, 302.49569567842303 537.3880292330851, 302.72216870452417 537.1491321211464, 302.9601039883201 536.9083942395063, 303.20947313821847 536.665885764036, 303.47024641186295 536.421676449346, 303.7423927263606 536.1758356192289, 304.02587966866014 535.9284321571786, 304.3206735060792 535.6795344969908, 304.62673919697824 535.429210613445, 304.9440404015784 535.1775280130707, 305.27253949291986 534.924553725001, 305.61219756796015 534.6703542919125, 305.96297445880765 534.4149957610582, 306.3248287440896 534.158543675392, 306.69771776045076 533.901063064788, 307.08159761418096 533.642618437356, 307.4764231929687 533.383273770858, 307.882148177778 533.1230925042222, 308.2987250548471 532.8621375291617, 308.72610512780443 532.6004711818979, 309.16423852990107 532.3381552349883, 309.61307423635685 532.0752508892656, 310.07256007681667 531.811818765884, 310.54264274791535 531.547918898479, 311.02326782594815 531.2836107254401, 311.51437977964423 531.0189530822989, 312.01592198304127 530.7540041942353, 312.5278367284572 530.4888216687, 313.05006523955814 530.2234624881596, 313.5825476845191 529.9579830029626, 314.125223189275 529.6924389243286, 314.67802985085973 529.4268853174628, 315.24090475082994 529.1613765947972, 315.8137839687722 528.8959665093587, 316.39660259589056 528.6307081482685, 316.98929474867066 528.3656539263699, 317.5917935826202 528.1008555799897, 318.2040313060816 527.836364160833, 318.8259391941145 527.5722300300114, 319.45744760244594 527.3085028522095, 320.0984859814861 527.0452315899859, 320.74898289040567 526.7824644982145, 321.40886601127374 526.5202491186653, 322.0780621632536 526.2586322747238, 322.7564973168523 525.9976600662554, 323.4440966082242 525.7373778646096, 324.1407843535234 525.4778303077694, 324.8464840633038 525.219061295646, 325.56111845696546 524.961113985518, 326.2846094772413 524.7040307876174, 327.0168783047257 524.447853360864, 327.75784537244004 524.1926226087476, 328.50743038043316 523.9383786753588, 329.26555231041516 523.6851609415706, 330.0321294404207 523.4330080213701, 330.80707935950034 523.1819577583415, 331.5903189824379 522.9320472223006, 332.3817645644896 522.6833127060844, 333.18133171614465 522.4357897224888, 333.9889354179037 522.1895130013663, 334.80449003507243 521.9445164868723, 335.6279093325698 521.7008333348698, 336.45910648974564 521.4584959104873, 337.2979941152078 521.2175357858331, 338.14448426165563 520.9779837378651, 338.998488440716 520.7398697464175, 339.85991763778276 520.5032229923827, 340.72868232685363 520.2680718560513, 341.6046924853645 520.034443915608, 342.4878576090189 519.8023659457858, 343.3780867266087 519.5718639166771, 344.27528841482456 519.3429629927011, 345.1793708130557 519.1156875317308, 346.09024163817287 518.8900610843764, 347.0078081992954 518.6661063934256, 347.93197741253965 518.443845393443, 348.86265581574463 518.2232992105257, 349.7997495831751 518.0044881622177, 350.7431645401989 517.7874317575797, 351.69280617793487 517.5721486974174, 352.648579667872 517.3586568746666, 353.6103898764558 517.1469733749337, 354.57814137963936 516.9371144771951, 355.55173847739854 516.7290956546491, 356.5310852082077 516.5229315757273, 357.51608536347476 516.318636105259, 358.5066425019335 516.1162223057908, 359.5026599639894 515.9157024390614, 360.50404088601994 515.7170879676308, 361.5106882146239 515.5203895566615, 362.52250472082045 515.3256170758539, 363.53939301419484 515.1327796015344, 364.56125555698736 514.941885418894, 365.58799467812645 514.7529420243796, 366.6195125872015 514.5659561282349, 367.65571138837447 514.3809336571909, 368.6964930942282 514.1978797573066, 369.74175963954946 514.0167987969571, 370.79141289504463 513.8376943699698, 371.8453546809868 513.660569298906, 372.90348678079135 513.4854256384907, 373.9657109545186 513.3122646791852, 375.03192895230256 513.1410869509048, 376.10204252770234 512.9718922268789, 377.17595345097584 512.8046795276546, 378.2535635222727 512.6394471252394, 379.33477458474607 512.4761925473856, 380.41948853758015 512.3149125820133, 381.5076073489325 512.15560328177, 382.5990330687895 511.99825996872977, 383.6936678417327 511.8428772392248, 384.7914139196152 511.68944896881345, 385.89217367414483 511.5379683173818, 386.995849609375 511.388427734375, 388.10234437409895 511.24081896416186, 389.211560774148 511.09513305152734, 390.3234017845899 510.9513603472937, 391.43777056182927 510.8094905140679, 392.554570455604 510.6695125321157, 393.6737050208798 510.531414705358, 394.7950780296407 510.39518466749126, 395.9185934825715 510.2608093882281, 397.0441556206348 510.12827517965843, 398.1716689365376 509.99756770272757, 399.3010381860887 509.8686719738325, 400.43216839944296 509.74157237153156, 401.56496489223366 509.61625264336953, 402.6993332765904 509.4926959128132, 403.83517947204 509.37088468629776, 404.97240971629236 509.2508008603821, 406.11093057590654 509.1324257290109, 407.2506489568374 509.0157399908823, 408.3914721148627 508.9007237569192, 409.5333076658872 508.7873565578419, 410.6760635961242 508.67561735184194, 411.81964827215216 508.5654845323537, 412.9639704508477 508.4569359359229, 414.10893928918983 508.34994885016965, 415.2544643539391 508.24450002184483, 416.4004556311863 508.1405656649775, 417.54682353577317 508.03812146911184, 418.69347892058113 507.9371426076305, 419.8403330856905 507.8376037461658, 420.98729778740494 507.7394790510912, 422.1342852471451 507.64274219809755, 423.28120816020595 507.54736638084705, 424.42797970438016 507.4533243197059, 425.5745135484459 507.36058827055234, 426.7207238605172 507.26913003365894, 427.8665253162572 507.17892096264507, 429.0118331069533 507.0899319735018, 430.1565629474534 507.00213355368146, 431.30063108396257 506.915495771255, 432.44395430169925 506.82998828413184, 433.5864499324107 506.7455803493412, 434.7280358617471 506.6622408323727, 435.8686305364936 506.5799382165748, 437.00815297165883 506.4986406126072, 438.14652275742196 506.4183157679474, 439.2836600659346 506.3389310764464, 440.41948565797895 506.26045358793465, 441.5539208894822 506.18285001787353, 442.6868877178844 506.1060867570509, 443.8183087083629 506.0301298813189, 444.94810703990913 505.95494516137154, 446.0762065112609 505.8804980725601, 447.20253154668785 505.80675380474304, 448.3270072016293 505.73367727217015, 449.4495591681875 505.66123312339613, 450.5701137804713 505.589385751224, 451.6885980197951 505.5180993026742, 452.804939519728 505.4473376889777, 453.9190665709976 505.37706459559087, 455.0309081262443 505.30724349222993, 456.1403938046303 505.2378376429225, 457.2474538962987 505.1688101160736, 458.35201936668574 505.10012379454486, 459.45402186068657 505.03174138574326, 460.5533937066714 504.96362543171796, 461.65006792035575 504.8957383192631, 462.74397820852295 504.82804229002306, 463.8350589725994 504.76049945059907, 464.92324531208226 504.6930717826541, 466.00847302782125 504.6257211530144, 467.09067862515394 504.5584093237643, 468.1697993168937 504.4910979623324, 469.2457730261728 504.4237486515679, 470.3185383891388 504.3563228998022, 471.3880347575072 504.2887821508962, 472.4542022009679 504.22108779426907, 473.5169815094474 504.1532011749066, 474.5763141952276 504.0850836033466, 475.6321424949205 504.01669636564094, 476.6844093713003 503.9480007332873, 477.73305851499333 503.8789579731338, 478.778034346025 503.80952935725037, 479.8192820152269 503.7396761727649, 480.8567474055024 503.6693597316643, 481.8903771329528 503.5985413805549, 482.92011854786347 503.5271825103812, 483.9459197355534 503.4552445661021, 484.96772951708425 503.3826890563197, 485.98549744983467 503.309477562859, 486.99917382793797 503.23557175029816, 488.00870968258425 503.16093337544436, 489.01405678218777 503.0855242967538, 490.01516763242194 503.0093064836948, 491.01199547612157 502.9322420260495, 492.0044942930521 502.85429314315326, 492.9926187995512 502.77542219306923, 493.97632444803736 502.695591681696, 494.9555674263933 502.6147642718041, 495.9303046572204 502.53290279200303, 496.9004937969663 502.449970245632, 497.8660932349299 502.36592981957523, 498.82706209213944 502.28074489299826, 499.78336022011086 502.1943790460033, 500.73494819948235 502.1067960682011, 501.6817873385306 502.0179599671981, 502.6238396715672 501.92783497699435, 503.56106795721786 501.83638556629256, 504.49343567658553 501.74357644671477, 505.4209070312989 501.6493725809244, 506.3434469414478 501.5537391906514, 507.2610210434055 501.45664176461906, 508.1735956875429 501.35804606636935, 509.08113793583163 501.2579181419855, 509.98361555934093 501.15622432770857, 510.880997035629 501.0529312574472, 511.7732515460292 500.9480058701774, 512.6603489728346 500.8414154172309, 513.5422598963814 500.73312746946846, 514.4189555920324 500.6231099243388, 515.2904080270641 500.5113310128189, 516.1565898574568 500.3977593062333, 517.017474424592 500.2823637229527, 517.8730357518567 500.16511353496713, 518.7232485411562 500.0459783743338, 519.5680881693406 499.9249282394958, 520.407530684543 499.80193350147175, 521.2415528024328 499.6769649099121, 522.0701319023871 499.5499935990216, 522.8932460235787 499.4209910933467, 523.7108738609891 499.28992931342276, 524.5229947613396 499.156780581284, 525.3295887189515 499.0215176258295, 526.1306363715305 498.8841135880464, 526.9261189958814 498.7445420260876, 527.7160185035538 498.6027769202022, 528.5003174364203 498.4587926775161, 529.2789989621918 498.312564136663, 530.052046869868 498.1640665722611, 530.8194455651294 498.01327569923603, 531.5811800656703 497.8601676769881, 532.3372359964767 497.7047191134013, 533.0875995850497 497.5469070686924, 533.8322576565777 497.38670905909856, 534.5711976290609 497.2241030604035, 535.3044075083865 497.0590675112978, 536.0318758833623 496.8915813165738, 536.7535919207065 496.7216238501523, 537.4695453599974 496.54917495794103, 538.179726508588 496.3742149605214, 538.8841262364838 496.1967246556639, 539.5827359711883 496.01668532066964, 540.27554769252 495.83407871453585, 540.9625539274004 495.64888707994726, 541.6437477446174 495.46109314508675, 542.3191227495658 495.2706801252687, 542.9886730789707 495.0776317243917, 543.6523933955873 494.8819321362078, 544.310278882894 494.6835660454111, 544.9623252397647 494.48251862853976, 545.608528675139 494.27877555469394, 546.2488859026798 494.0723229860663, 546.8833941354296 493.86314757828444, 547.5120510804638 493.6512364805651, 548.1348549335448 493.4365773356776, 548.7518043737797 493.2191582797165, 549.3628985582855 492.9989679416815, 549.9681371168606 492.7759954428652, 550.5675201466704 492.5502303960457, 551.1610482069464 492.3216629044852, 551.748722313701 492.09028356073134, 552.3305439344654 491.8560834452233, 552.9065149830461 491.61905412469963, 553.4766378143102 491.37918765040695, 554.0409152189968 491.1364765561111, 554.5993504185604 490.8909138559079, 555.1519470600473 490.6424930418322, 555.698709211009 490.39120808126825, 556.2396413544552 490.1370534141562, 556.7747483838486 489.88002394999825, 557.304035598145 489.62011506466, 557.8275086968807 489.35732259697113, 558.3451737753126 489.09164284512013, 558.8570373196088 488.8230725628467, 559.3631062020991 488.5516089554291, 559.8633876765814 488.2772496754674, 560.3578893736941 487.99999281846084, 560.8466192963505 487.71983691818167, 561.3295858152418 487.43678094184276, 561.8067976644136 487.15082428506014, 562.2782639369126 486.8619667666101, 562.7439940805119 486.57020862298134, 563.2039978935159 486.2755505027209, 563.658285520647 485.9779934605761, 564.1068674490188 485.6775389514302, 564.5497545041962 485.37418882403347, 564.986957846348 485.06794531453016, 565.4184889664921 484.75881103977946, 565.8443596828398 484.4467889904749, 566.2645821372381 484.13188252405746, 566.6791687917157 483.81409535742694, 567.0881324251353 483.4934315594507, 567.4914861299525 483.16989554326886, 567.8892433090882 482.84349205839993, 568.281417672915 482.51422618264405, 568.6680232363606 482.1821033137862, 569.0490743161297 481.84712916110124, 569.4245855280528 481.50930973665925, 569.7945717845573 481.1686513464338, 570.1590482922687 480.8251605812138, 570.5180305497436 480.47884430731955, 570.8715343453366 480.1297096571241, 571.2195757552055 479.77776401938246, 571.5621711414548 479.42301502936726, 571.8993371504235 479.0654705588155, 572.2310907111195 478.70513870568436, 572.5574490337992 478.3420277837197, 572.8784296087024 477.9761463118391, 573.1940502049385 477.6075030033289, 573.5043288695312 477.23610675485884, 573.8092839266205 476.8619666353153, 574.108933976831 476.4850918744546, 574.4032978968011 476.10549185137984, 574.692394838882 475.7231760828401, 574.9762442310079 475.3381542113581, 575.2548657767367 474.9504359931852, 575.5282794554702 474.56003128608745, 575.7965055228483 474.16695003696447, 576.059564511329 473.7712022693042, 576.3174772309483 473.37279807047474, 576.5702647702675 472.9717475788576, 576.8179484975111 472.5680609708235, 577.0605500618931 472.16174844755324, 577.2980913951396 471.75282022170853, 577.5305947132067 471.3412865039538, 577.7580825181973 470.927157489332, 577.9805776004802 470.51044334349825, 578.1981030410117 470.0911541888152, 578.4106822138642 469.6693000903114, 578.6183387889638 469.24489104150734, 578.8210967350385 468.8179369501131, 579.0189803227786 468.3884476236, 579.2120141282151 467.95643275465085, 579.400223036315 467.52190190649236, 579.5836322447958 467.084864498113, 579.7622672681638 466.64532978937194, 579.9361539419778 466.20330686600147, 580.1053184273361 465.7588046245075, 580.2697872155983 465.3118317569743, 580.4295871333325 464.86239673577506, 580.5847453474998 464.4105077981949, 580.7352893708721 463.95617293097087, 580.8812470676878 463.49939985475316, 581.0226466595471 463.04019600849216, 581.159516731549 462.57856853375813, 581.2918862386701 462.114524258997, 581.4197845123906 461.6480696837282, 581.5432412675652 461.1792109626905, 581.6622866095457 460.70795388994077, 581.7769510415513 460.2343038829122, 581.8872654722934 459.7582659664362, 581.9932612238539 459.27984475673674, 582.0949700398195 458.79904444540153, 582.1924240936736 458.31586878333513, 582.2856559974477 457.8303210647036, 582.3746988106318 457.3424041108756, 582.4595860493511 456.85212025436573, 582.5403516958012 456.35947132278903, 582.6170302079535 455.86445862283273, 582.6896565295239 455.3670829242517, 582.7582661002111 454.86734444389754, 582.8228948662045 454.36524282978576, 582.8835792909616 453.860777145211, 582.9403563662593 453.353945852917, 582.993263623516 452.844746799331, 583.042339145391 452.333177198868, 583.0876215776563 451.81923361831696, 583.129150141347 451.3029119613141, 583.1669646451895 450.7842074529144, 583.2011054983072 450.26311462427014, 583.2316137232059 449.73962729742306, 583.2585309690413 449.21373857022445, 583.2818995251654 448.6854408013871, 583.3017623349571 448.15472559568354, 583.3181630099349 447.62158378929803, 583.3311458441536 447.08600543534214, 583.3407558288847 446.5479797895472, 583.3470386675824 446.00749529614023, 583.3500407911348 445.46453957391753, 583.3498093734026 444.9190994025258, 583.3463923470405 444.37116070896036, 583.3398384196109 443.82070855429527, 583.3301970899804 443.26772712065394, 583.3175186650075 442.7121996984345, 583.3018542765146 442.1541086738004, 583.2832558985517 441.59343551644974, 583.2617763649471 441.03016076767517, 583.2374693871458 440.4642640287287, 583.2103895723376 439.8957239495021, 583.1805924418737 439.3245182175392, 583.1481344499712 438.75062354739197, 583.113073002707 438.17401567033386, 583.0754664772992 437.5946693244463, 583.035374241678 437.0125582450923, 582.9928566743429 436.42765515579043, 582.9479751845088 435.83993175950627, 582.9007922325383 435.249358730375, 582.8513713506635 434.6559057058722, 582.7997771639905 434.0595412794475, 582.7460754117923 433.4602329936378, 582.6903329690876 432.8579473336762, 582.6326178685031 432.25264972161443, 582.5729993224186 431.64430451097473, 582.5115477454001 431.0328749819488, 582.4483347769108 430.41832333716184, 582.3834333043065 429.8006106980203, 582.3169174861109 429.1796971016605, 582.2488627755719 428.5555414985173, 582.1793459444958 427.928101750532, 582.1084451073604 427.2973346300203, 582.0362397457045 426.66319581921596, 581.9628107327933 426.0256399105156, 581.8882403585582 425.38462040744076, 581.8126123548097 424.74008972634033, 581.7360119207234 424.09199919885396, 581.6585257485949 423.44029907515824, 581.5802420498649 422.78493852801694, 581.5012505814119 422.12586565765787, 581.421642672111 421.46302749750043, 581.3415112496572 420.7963700207548, 581.2609508676517 420.12583814791736, 581.1800577329493 419.45137575518766, 581.0989297332662 418.77292568382813, 581.0176664650442 418.09042975049397, 580.9363692615714 417.40382875855795, 580.855141221358 416.713062510455, 580.7740872367623 416.0180698210727, 580.693314022868 415.31878853221514, 580.6129301466084 414.61515552816655, 580.5330460561386 413.90710675238176, 580.4537741104497 413.1945772253322, 580.3752286092242 412.47750106353504, 580.2975258229333 411.7558114997954, 580.2207840231677 411.0294409046892, 580.1451235132067 410.29832080931874, 580.0706666588171 409.5623819293698, 579.9975379192826 408.82155419050076, 579.9258638786614 408.07576675509756, 579.8557732772678 407.3249480504225, 579.7873970433764 406.569025798194, 579.7208683251465 405.8079270456253, 579.6563225227627 405.0415781979598, 579.59389732079 404.26990505253514, 579.5337327207411 403.49283283440946, 579.4759710738522 402.7102862335884, 579.4207571140648 401.9221894438855, 579.3682379912098 401.12846620345334, 579.3185633043935 400.32903983702306, 579.2718851355793 399.52383329988857, 579.2283580833649 398.7127692236749, 579.1881392969497 397.895769963928, 579.1513885102909 397.0727576495668, 579.118268076445 396.2436542342364, 579.0889430020916 395.4083815496035, 579.0635809822344 394.56686136063627, 579.0423524350797 393.7190154229081, 579.0254305370873 392.86476554197094, 579.0129912581887 392.0040336348393, 579.0052133971733 391.1367417936309, 579.0022786172366 390.26281235140533, 579.0043714816878 389.3821679502506, 579.0116794898124 388.49473161166, 579.0243931128897 387.60042680924755, 579.0427058303566 386.6991775438504, 579.0668141661196 385.79090842106456, 579.0969177250081 384.8755447312651, 579.1332192293668 383.9530125321593, 579.1759245557834 383.02323873392334, 579.2252427719486 382.08615118697503, 579.281386173645 381.1416787724339, 579.3445703218595 380.18975149532173, 579.4150140800186 379.2303005805573, 579.4929396513418 378.2632585718008, 579.5785726163076 377.2885594332017, 579.6721419702327 376.3061386541089, 579.7738801609572 375.31593335679736, 579.8840231266336 374.3178824072717, 580.0028103336169 373.3119265292053, 580.1304848144508 372.29800842107323, 580.2672932059477 371.27607287654075, 580.413485787357 370.24606690817086, 580.569316518622 369.2079398745093, 580.7350430787174 368.1616436106151, 580.9109269040663 367.10713256209755, 581.097233227035 366.04436392272754, 581.2942311144967 364.9732977756877, 581.5021935064667 363.8938972385308, 581.721397254802 362.80612861191344, 581.9521231619634 361.7099615321741, 582.1946560198351 360.60536912782766, 582.4492846486005 359.49232818004685, 582.7163019356717 358.37081928720335, 582.996004874663 357.240827033541, 583.2886946044152 356.1023401620588, 583.5946764480598 354.95535175167674, 583.9142599521201 353.799859398762, 584.2477589256544 352.63586540309507, 584.5954914794241 351.463376958352, 584.9577800651001 350.2824063471872, 585.3349515144888 349.09297114099405, 585.727337078788 347.89509440442856, 586.1352724678595 346.68880490478, 586.5590978895228 345.47413732627143, 586.9991580888649 344.25113248937976, 587.4558023875594 343.0198375752594, 587.9293847232012 341.7803063553608, 588.4202636886449 340.5325994263326, 588.9288025713505 339.27678445029954, 589.4553693927325 338.0129364006083, 590.0003369475091 336.7411378131351, 590.5640828430495 335.4614790432509, 591.1469895387193 334.1740585285406, 591.7494443852192 332.878983057374, 592.3718396639175 331.5763680434278, 593.0145726261705 330.2663378062607, 593.6780455326367 328.9490258580417, 594.3626656925734 327.62457519653674, 595.0688455031237 326.29313860445933, 595.7970024885855 324.9548789552888, 596.547559339664 323.60996952566745, 597.3209439527085 322.2585943144855, 598.1175894689276 320.9009483687617, 598.9379343135872 319.53723811643795, 599.7824222351866 318.1676817061957, 600.6515023446154 316.79250935441473, 601.545629154286 315.41196369938984, 602.4652626172484 314.0263001629231, 603.4108681662802 312.63578731941436, 604.3829167529557 311.24070727257106, 605.3818848866945 309.84135603986135, 606.4082546737862 308.4380439448359, 607.4625138563979 307.0310960174455, 608.545155851558 305.62085240248473, 609.6566797901243 304.20766877628995, 610.7975905557308 302.791916771827, 611.9683988237199 301.3739844123001, 613.1696211000586 299.9542765534199, 614.4017797602403 298.533215334468, 615.6654030881751 297.11124063829715, 616.9610253150718 295.68881056040954, 618.2891866583079 294.26640188725605, 619.6504333603018 292.8445105839027, 621.045317727374 291.42365229121043, 622.4743981686171 290.00436283267754, 623.9382392347638 288.5871987310985, 625.4374116570656 287.1727377351887, 626.9724923861819 285.7615793563326, 628.5440646310817 284.3543454156132, 630.152717897969 282.95168060127963, 631.7990480292274 281.5542530368173, 633.4836572423964 280.1627548597824, 635.2071541691797 278.777902811566, 636.9701538944934 277.40043883825774, 638.7732779955566 276.0311307027779, 640.6171545810348 274.67077260844917, 642.5024183302396 273.3201858341839, 644.429710532391 271.9802193814643, 646.3996791259483 270.65175063329247, 648.4129787380213 269.33568602529317, 650.470270723865 268.0329617291526, 652.5722232064655 266.7445443485793, 654.7195111162303 265.4714316279749, 656.9128162307824 264.21465317400725, 659.1528272148798 262.9752711902762, 661.4402396604569 261.754381225272, 663.7757561268047 260.55311293381965, 666.1600861809022 259.37263085221383, 668.5939464378994 258.2141351872458, 671.0780606017722 257.0788626193284, 673.6131595061587 255.96808711992728, 676.1999811553844 254.88312078351026, 678.8392707656919 253.8253146742278, 681.531780806687 252.79605968754032, 684.2782710430138 251.79678742701321, 687.0795085762726 250.82897109650003, 689.9362678871926 249.89412640793802, 692.8493308780784 248.993812504985, 695.8194869155382 248.1296329027258, 698.8475328735155 247.30323644368326, 701.9342731766361 246.51631827036798, 705.0805198438868 245.77062081460627, 708.2870925326473 245.06793480388896, 711.5548185830826 244.41010028498408, 714.8845330629265 243.79900766506256, 718.2770788126629 243.23659877058736, 721.7333064911313 242.7248679242187, 725.2540746215731 242.26586303999528, 728.840249638138 241.86168673704734, 732.4927059328733 241.514497472109, 736.2123259032138 241.22651069109307, 740.0 241.0, " stroke="black" fill="transparent"/>
</svg>